<?xml version="1.0" standalone="no"?>
<!DOCTYPE svg PUBLIC "-//W3C//DTD SVG 20010904//EN"
 "http://www.w3.org/TR/2001/REC-SVG-20010904/DTD/svg10.dtd">
<svg version="1.0" xmlns="http://www.w3.org/2000/svg"
 width="1768.000000pt" height="1224.000000pt" viewBox="0 0 1768.000000 1224.000000"
 preserveAspectRatio="xMidYMid meet">

<g transform="translate(0.000000,1224.000000) scale(0.100000,-0.100000)"
fill="#000000" stroke="none">
<path d="M7790 10230 c0 -6 26 -10 59 -10 33 0 63 5 66 10 4 6 -18 10 -59 10
-37 0 -66 -4 -66 -10z"/>
<path d="M7955 10230 c-4 -6 27 -10 84 -10 54 0 91 4 91 10 0 6 -35 10 -84 10
-47 0 -88 -4 -91 -10z"/>
<path d="M8505 10200 c28 -12 55 -12 55 0 0 6 -17 10 -37 9 -31 0 -34 -2 -18
-9z"/>
<path d="M7361 10191 c-11 -7 -11 -9 0 -13 8 -3 22 -3 32 0 15 4 16 7 5 13
-16 11 -20 11 -37 0z"/>
<path d="M8677 10170 c15 -17 103 -26 103 -11 0 6 -15 11 -32 11 -18 0 -44 3
-58 6 -20 5 -23 4 -13 -6z"/>
<path d="M7020 10129 c0 -5 5 -7 10 -4 6 3 10 8 10 11 0 2 -4 4 -10 4 -5 0
-10 -5 -10 -11z"/>
<path d="M6970 10120 c-13 -8 -12 -10 3 -10 9 0 17 5 17 10 0 12 -1 12 -20 0z"/>
<path d="M8930 10125 c0 -13 112 -54 160 -59 64 -6 195 -40 213 -54 7 -6 44
-19 82 -30 81 -22 173 -59 196 -79 8 -7 35 -13 60 -13 30 0 39 3 30 9 -8 5
-20 7 -28 4 -7 -3 -13 2 -13 11 0 9 -8 16 -18 16 -10 0 -35 9 -57 20 -48 24
-95 40 -135 45 -38 5 -150 41 -207 66 -24 11 -46 18 -50 17 -5 0 -20 4 -36 10
-58 24 -197 51 -197 37z"/>
<path d="M6918 10103 c7 -3 16 -2 19 1 4 3 -2 6 -13 5 -11 0 -14 -3 -6 -6z"/>
<path d="M6796 10083 c-4 -5 -11 -8 -14 -9 -4 0 -20 -6 -37 -13 -16 -6 -36
-14 -42 -16 -13 -4 -19 -25 -8 -25 3 0 22 8 43 19 20 10 53 22 72 26 56 12 71
24 29 25 -20 0 -39 -3 -43 -7z"/>
<path d="M7898 10049 c-31 -12 -62 -58 -73 -106 -8 -38 17 -97 50 -119 47 -31
81 -34 127 -11 51 26 68 55 68 121 0 43 -4 53 -39 87 -41 41 -76 49 -133 28z"/>
<path d="M6540 10009 c-19 -5 -39 -11 -45 -12 -5 -2 -26 -7 -45 -11 -19 -5
-39 -11 -45 -14 -5 -4 -15 -7 -20 -8 -6 -1 -42 -18 -80 -37 -66 -34 -68 -35
-30 -30 35 5 67 16 185 66 29 12 25 11 67 21 17 4 37 14 44 22 6 8 10 14 8 13
-2 -1 -20 -5 -39 -10z"/>
<path d="M8654 9989 c-18 -5 -46 -26 -64 -46 -30 -33 -32 -40 -28 -92 4 -47
10 -59 38 -82 46 -39 80 -44 133 -21 101 45 101 188 0 237 -35 17 -35 17 -79
4z"/>
<path d="M7152 9974 c-26 -18 -62 -84 -62 -114 0 -63 69 -130 135 -130 116 0
157 162 59 239 -32 25 -99 28 -132 5z"/>
<path d="M9690 9887 c0 -9 18 -23 40 -33 22 -10 40 -21 40 -25 0 -4 37 -22 83
-39 45 -17 89 -40 99 -51 9 -10 19 -19 22 -19 17 0 148 -70 182 -97 22 -17 77
-49 124 -72 47 -24 96 -53 110 -65 14 -12 45 -35 70 -51 25 -15 68 -47 95 -70
28 -22 64 -50 80 -60 17 -10 41 -29 55 -42 14 -13 45 -39 70 -59 93 -73 390
-355 390 -370 0 -5 169 -191 247 -273 18 -19 33 -37 33 -40 0 -4 20 -29 45
-56 25 -28 45 -55 45 -62 0 -6 15 -29 33 -52 35 -44 80 -112 113 -172 12 -21
39 -59 60 -85 21 -25 39 -57 39 -70 1 -13 15 -45 32 -71 33 -54 133 -256 133
-271 0 -5 6 -15 14 -21 8 -7 18 -25 21 -41 3 -15 15 -36 26 -46 10 -9 19 -21
19 -26 0 -4 25 -61 57 -126 31 -64 62 -142 69 -172 7 -30 24 -82 38 -116 14
-33 33 -87 42 -120 8 -32 25 -90 35 -129 96 -338 160 -797 158 -1134 0 -180
-11 -397 -28 -576 -15 -159 -81 -512 -101 -540 -4 -5 -10 -30 -14 -55 -10 -66
-70 -268 -93 -315 -12 -22 -28 -69 -37 -104 -9 -36 -22 -71 -29 -79 -6 -8 -22
-40 -33 -71 -12 -31 -36 -92 -54 -136 -18 -44 -42 -107 -55 -140 -31 -85 -46
-117 -67 -140 -21 -24 -68 -115 -68 -131 0 -6 -7 -17 -16 -25 -8 -7 -25 -31
-36 -53 -11 -23 -28 -50 -38 -61 -10 -11 -28 -40 -41 -65 -22 -43 -64 -103
-101 -144 -10 -11 -18 -25 -18 -32 0 -21 -44 -83 -62 -89 -10 -4 -18 -11 -18
-16 0 -5 -10 -23 -22 -39 -12 -16 -19 -32 -16 -36 9 -8 93 81 134 141 18 28
51 73 73 100 22 28 40 55 41 60 0 6 25 39 55 75 30 35 55 70 55 77 0 19 38 94
60 118 10 11 46 74 80 140 35 66 68 130 76 141 7 12 19 46 27 77 8 31 24 69
36 85 12 17 21 33 21 37 0 3 11 30 25 58 35 75 105 260 105 279 0 9 15 60 34
115 68 198 126 455 126 560 0 26 7 61 15 77 27 50 36 114 46 301 12 238 13
546 1 777 -8 162 -12 192 -31 223 -16 28 -21 53 -21 107 0 38 -6 96 -14 127
-7 31 -24 101 -36 156 -34 149 -66 271 -96 360 -57 168 -116 330 -124 340 -5
6 -18 37 -30 70 -27 72 -152 322 -230 460 -100 176 -167 276 -320 477 -41 55
-93 125 -114 156 -56 80 -558 579 -631 627 -33 21 -92 65 -131 96 -40 32 -89
68 -111 82 -21 13 -45 32 -52 41 -14 16 -110 78 -189 121 -20 11 -86 48 -147
82 -122 67 -181 98 -270 139 -32 15 -75 38 -93 51 -19 13 -43 23 -53 23 -10 0
-34 9 -53 21 -30 17 -36 18 -36 6z"/>
<path d="M6155 9871 c-47 -17 -80 -32 -230 -108 -120 -60 -351 -187 -381 -210
-17 -13 -36 -23 -41 -23 -6 0 -16 -7 -23 -16 -8 -8 -43 -33 -80 -54 -37 -21
-89 -58 -116 -82 -27 -24 -67 -56 -89 -70 -22 -15 -69 -52 -105 -82 -36 -31
-95 -80 -132 -110 -83 -70 -301 -286 -393 -392 -128 -147 -287 -352 -368 -474
-31 -47 -73 -106 -92 -132 -20 -26 -42 -63 -51 -84 -8 -20 -26 -53 -38 -73
-44 -70 -202 -387 -219 -439 -9 -30 -26 -66 -37 -82 -11 -15 -40 -89 -64 -163
-25 -75 -51 -148 -59 -164 -8 -15 -18 -46 -22 -68 -8 -47 -53 -211 -65 -240
-14 -34 -41 -157 -50 -230 -13 -100 -37 -247 -44 -265 -4 -8 -14 -98 -23 -200
-19 -214 -21 -536 -4 -730 11 -131 17 -179 47 -345 7 -44 18 -115 24 -158 11
-82 41 -201 59 -235 6 -11 11 -32 11 -47 0 -27 30 -131 81 -280 17 -49 43
-124 56 -165 40 -120 106 -273 159 -370 8 -14 23 -45 35 -70 59 -126 84 -172
110 -196 16 -15 29 -33 29 -39 0 -5 8 -26 19 -45 10 -19 22 -46 26 -60 4 -14
44 -74 89 -135 46 -60 99 -135 119 -165 20 -30 44 -64 54 -75 10 -11 33 -38
52 -60 18 -22 53 -61 77 -87 24 -26 44 -51 44 -55 0 -12 50 -56 57 -50 8 9
-27 67 -40 67 -11 0 -41 42 -90 124 -10 17 -31 43 -47 57 -17 14 -30 32 -30
41 0 8 -10 27 -22 41 -13 14 -39 49 -58 78 -19 28 -45 64 -57 79 -13 15 -23
35 -23 43 0 8 -18 39 -40 68 -22 30 -40 58 -40 64 0 6 -16 34 -35 64 -19 29
-35 55 -35 58 0 3 -8 17 -19 31 -10 15 -22 38 -26 52 -4 14 -18 37 -31 52 -12
15 -25 42 -29 60 -4 18 -15 47 -25 63 -10 17 -39 84 -65 150 -26 66 -55 136
-65 155 -10 19 -23 62 -30 95 -7 33 -19 67 -25 75 -16 21 -85 248 -119 395
-74 318 -125 739 -126 1030 0 241 27 527 84 871 16 100 24 132 62 269 14 50
35 122 46 160 10 39 28 93 38 120 11 28 27 82 36 120 10 39 24 77 31 86 7 8
21 40 32 70 19 55 37 98 97 226 19 40 34 78 34 86 0 7 4 17 10 23 10 10 67
114 136 249 26 50 55 101 66 115 32 42 125 186 144 221 9 18 28 42 41 52 14
11 29 29 34 41 5 11 23 39 40 61 16 22 43 58 58 80 15 22 62 76 105 120 42 44
83 92 91 107 8 15 23 29 34 33 10 3 35 26 54 51 19 25 66 72 104 105 37 33 73
71 80 83 6 12 29 34 50 48 21 14 53 40 71 57 18 17 37 31 42 31 5 0 36 25 67
55 32 31 76 68 98 83 21 15 47 35 57 45 10 9 25 17 33 17 9 0 18 6 21 14 3 7
30 26 61 42 30 16 71 43 91 60 21 16 69 48 107 69 39 21 86 53 105 72 19 18
50 38 70 44 19 7 38 17 42 24 4 7 20 16 35 20 63 15 277 129 304 161 15 18 6
17 -56 -5z"/>
<path d="M9322 9789 c-79 -51 -82 -168 -6 -228 24 -19 38 -22 77 -18 54 5 80
24 109 81 35 68 7 142 -63 170 -52 21 -77 20 -117 -5z"/>
<path d="M6478 9793 c-32 -5 -76 -47 -84 -80 -11 -43 2 -113 27 -139 50 -54
134 -50 181 8 84 103 8 232 -124 211z"/>
<path d="M7810 9569 c-47 -5 -95 -11 -107 -14 -29 -7 -45 -66 -43 -159 3 -110
1 -148 -9 -142 -5 3 -14 30 -21 58 -27 124 -44 180 -57 185 -34 13 -457 -56
-540 -89 -28 -11 -54 -26 -57 -33 -2 -7 2 -39 9 -72 28 -117 10 -179 -25 -87
-8 22 -26 68 -39 102 -13 35 -35 71 -48 82 -27 21 -9 25 -228 -56 -55 -20
-113 -39 -130 -42 -16 -2 -39 -11 -50 -18 -11 -8 -34 -14 -52 -14 -17 0 -35
-5 -39 -11 -8 -13 19 -115 47 -177 10 -23 19 -50 19 -60 0 -9 7 -25 15 -35 18
-24 9 -53 -11 -36 -8 6 -14 16 -14 21 0 5 -8 21 -19 36 -10 15 -35 53 -55 85
-20 31 -42 57 -48 57 -12 0 -179 -88 -268 -142 -36 -21 -74 -44 -85 -51 -76
-44 -185 -119 -185 -127 0 -11 95 -168 115 -190 8 -9 15 -22 15 -28 0 -22 -28
-12 -45 16 -18 28 -26 37 -115 135 -43 47 -59 57 -85 57 -37 0 -88 -34 -154
-102 -25 -27 -51 -48 -56 -48 -6 0 -30 -21 -54 -45 -25 -25 -49 -45 -55 -45
-9 0 -86 -79 -86 -88 0 -2 12 -19 28 -37 15 -18 47 -59 72 -91 25 -32 72 -87
104 -122 33 -34 56 -65 52 -69 -4 -4 -24 10 -45 32 -37 39 -72 70 -146 130
-57 46 -65 49 -91 34 -62 -32 -387 -437 -382 -473 2 -11 37 -46 78 -77 72 -56
93 -79 71 -79 -6 0 -30 12 -54 27 -23 15 -73 42 -110 60 -53 26 -71 40 -79 63
-11 34 -28 40 -28 11 0 -11 -6 -26 -13 -33 -33 -34 -77 -106 -83 -135 -4 -18
-17 -43 -29 -55 -12 -13 -31 -41 -42 -63 -34 -70 -64 -119 -88 -145 -29 -32
-45 -63 -45 -89 0 -18 6 -21 43 -21 31 0 57 -9 100 -36 67 -43 74 -60 20 -48
-80 16 -95 12 -120 -31 -12 -22 -39 -83 -59 -135 -20 -52 -44 -113 -54 -136
-31 -68 -74 -248 -66 -277 5 -20 16 -29 46 -37 61 -16 48 -30 -29 -30 -53 0
-74 4 -94 20 l-25 20 -20 -27 c-14 -20 -21 -53 -25 -113 -3 -47 -15 -110 -26
-140 -15 -43 -19 -80 -19 -167 0 -61 3 -115 7 -120 9 -15 98 -41 163 -48 32
-3 60 -10 63 -15 6 -9 -17 -14 -110 -25 -27 -3 -53 -9 -58 -14 -9 -9 -12 -467
-4 -558 6 -67 16 -73 123 -73 100 0 134 -15 57 -25 -27 -4 -86 -19 -133 -33
l-85 -27 2 -87 c1 -48 7 -96 12 -107 6 -11 11 -34 11 -51 0 -17 9 -56 21 -88
23 -61 39 -122 43 -162 3 -24 5 -25 82 -23 43 1 121 12 171 24 70 18 96 20
104 12 9 -9 1 -14 -32 -23 -24 -6 -64 -19 -89 -30 -25 -10 -62 -21 -82 -25
-21 -4 -42 -13 -49 -21 -13 -16 -6 -64 22 -144 10 -30 19 -63 19 -74 0 -11 6
-27 14 -35 7 -9 20 -36 29 -61 37 -104 49 -136 77 -193 17 -32 30 -65 30 -73
0 -8 7 -17 14 -20 16 -6 195 57 233 82 12 8 34 14 49 14 23 0 25 -2 13 -16 -7
-9 -22 -20 -34 -25 -11 -5 -38 -20 -60 -34 -22 -14 -51 -29 -64 -35 -42 -18
-81 -51 -96 -79 -17 -33 -5 -76 37 -131 29 -39 61 -92 80 -130 16 -35 101
-163 113 -172 15 -11 53 1 140 43 125 62 182 100 201 134 l17 32 -41 64 c-23
35 -42 72 -42 81 0 10 -4 18 -10 18 -8 0 -26 32 -58 103 -2 4 1 7 7 7 6 0 11
-6 11 -14 0 -7 11 -25 25 -40 14 -15 25 -34 25 -42 0 -7 3 -14 8 -14 4 0 23
-26 41 -57 19 -32 44 -70 57 -85 27 -33 22 -62 -15 -86 -14 -9 -35 -24 -46
-33 -102 -84 -215 -186 -215 -194 0 -20 98 -147 193 -249 20 -23 37 -44 37
-48 0 -3 22 -22 49 -42 27 -20 54 -49 61 -65 10 -26 34 -40 65 -41 11 0 122
89 229 184 78 69 55 78 242 -85 139 -122 168 -145 226 -184 21 -14 38 -33 38
-42 0 -8 -25 -53 -55 -98 -30 -46 -55 -87 -55 -93 0 -5 -6 -15 -14 -21 -8 -7
-21 -31 -29 -54 -8 -23 -18 -49 -22 -58 -4 -12 1 -18 19 -23 14 -3 26 -11 26
-16 0 -5 19 -19 43 -31 23 -12 53 -31 67 -43 14 -12 45 -31 70 -41 25 -11 63
-34 85 -52 49 -38 117 -68 166 -72 32 -2 41 3 73 41 21 24 61 90 89 146 29 57
60 108 70 113 12 7 28 5 55 -9 88 -46 357 -142 396 -142 23 0 86 -40 86 -55 0
-7 -9 -55 -19 -106 -10 -52 -21 -132 -23 -178 l-3 -84 40 -14 c22 -8 72 -16
110 -17 39 -2 88 -10 110 -19 39 -14 162 -34 255 -39 41 -3 46 0 59 27 20 41
49 176 57 263 4 40 11 75 15 78 5 3 133 5 285 6 221 0 278 -2 288 -13 7 -8 20
-69 30 -137 19 -145 38 -200 74 -213 30 -12 136 4 224 32 37 12 65 16 79 11
19 -7 91 5 214 36 30 8 30 8 29 79 -1 39 -7 87 -14 108 -7 21 -16 63 -21 94
-4 31 -11 68 -14 82 -6 22 -2 29 29 47 20 12 54 26 77 32 23 6 49 15 58 20 9
5 50 19 91 31 74 23 160 57 212 85 59 32 74 20 148 -121 24 -44 59 -102 78
-128 32 -44 38 -48 66 -43 39 8 118 47 155 78 15 14 44 31 62 38 19 7 50 25
69 40 19 14 60 39 90 55 57 29 100 67 100 88 0 19 -53 115 -130 237 -16 25
-29 59 -29 77 -1 27 6 36 52 66 28 19 63 47 77 62 13 14 40 36 60 48 19 12 75
60 123 107 48 47 95 86 103 88 8 2 60 -36 116 -85 128 -110 173 -143 196 -143
11 0 43 28 73 62 30 34 68 77 84 94 17 18 36 38 42 46 14 15 28 29 61 62 12
13 22 26 22 30 0 4 17 28 38 54 49 60 62 91 50 117 -11 21 -177 161 -205 172
-32 13 -73 56 -73 78 0 12 14 40 31 61 33 42 122 185 139 225 5 13 14 31 20
39 5 8 14 27 20 43 5 15 14 27 20 27 18 0 11 -46 -10 -65 -11 -10 -20 -25 -20
-33 0 -8 -10 -29 -23 -46 -13 -17 -33 -51 -45 -76 -23 -47 -31 -62 -71 -122
-23 -36 -23 -39 -6 -64 9 -14 30 -33 47 -42 16 -10 57 -34 90 -55 33 -21 85
-47 115 -58 l56 -19 34 26 c19 14 38 36 42 47 5 12 18 31 30 41 11 11 21 26
21 34 0 7 8 26 18 40 11 15 32 53 48 86 16 32 43 74 60 94 47 55 37 68 -111
160 -22 14 -52 33 -67 44 -15 10 -33 18 -40 18 -7 0 -22 7 -32 15 -24 18 -87
20 -104 3 -9 -9 -12 -7 -12 8 0 12 9 29 20 39 19 17 22 16 92 -17 118 -57 239
-98 286 -98 23 0 32 5 32 16 0 9 7 28 15 42 34 62 151 386 170 470 9 44 -13
68 -81 88 -29 8 -58 21 -64 29 -7 8 -24 15 -39 15 -14 0 -46 8 -71 17 -25 8
-57 15 -71 14 -37 -2 -53 21 -43 61 7 31 9 50 13 108 1 19 4 22 10 10 5 -8 6
-35 1 -60 -5 -27 -4 -52 2 -63 14 -28 69 -57 106 -57 18 0 48 -6 66 -14 20 -8
75 -14 143 -15 118 -2 141 7 130 49 -3 11 0 26 7 33 7 6 18 44 25 82 26 150
54 345 49 350 -8 8 -144 45 -186 50 -145 18 -144 35 2 35 153 0 141 -28 141
324 0 218 -3 298 -12 307 -7 7 -49 14 -93 17 -101 6 -101 22 1 40 41 7 83 16
94 21 11 5 32 13 48 20 27 11 36 34 17 46 -5 3 -10 37 -10 74 0 42 -8 93 -21
132 -20 61 -41 208 -40 277 1 35 -5 39 -28 18 -10 -9 -49 -16 -109 -20 -102
-6 -110 3 -36 36 41 17 44 22 44 56 -1 20 -8 55 -16 77 -9 22 -19 54 -24 70
-9 31 -42 125 -83 235 -38 102 -87 200 -100 200 -7 -1 -23 -7 -37 -15 -31 -18
-83 -20 -78 -3 2 6 13 16 23 22 10 6 41 26 67 44 26 17 55 32 63 32 23 0 17
31 -15 79 -17 24 -30 52 -30 62 0 9 -15 37 -32 61 -55 73 -86 121 -102 158 -8
19 -28 48 -45 64 -17 17 -31 40 -31 52 0 34 -19 39 -45 12 -12 -14 -38 -31
-56 -38 -19 -8 -63 -33 -98 -57 -62 -41 -91 -52 -91 -35 0 4 34 34 75 67 100
78 100 88 -1 215 -83 103 -218 255 -274 307 -19 18 -45 33 -58 33 -13 0 -47
-23 -84 -57 -81 -74 -92 -51 -19 37 28 34 51 67 51 75 0 7 14 25 31 39 30 26
31 27 14 46 -10 11 -24 20 -32 20 -8 0 -35 20 -61 45 -38 36 -140 125 -274
240 -10 8 -23 15 -28 15 -15 0 -194 -181 -216 -218 -10 -18 -22 -32 -26 -32
-13 0 -9 13 12 40 11 14 20 33 20 42 0 9 5 20 11 24 16 10 71 133 64 144 -9
15 -145 105 -186 124 -19 9 -54 28 -79 42 -92 53 -250 134 -262 134 -17 0 -65
-61 -73 -93 -4 -14 -18 -35 -31 -48 -13 -12 -24 -30 -24 -40 0 -19 -17 -35
-27 -25 -6 6 22 98 50 166 8 19 17 54 21 77 5 38 3 43 -29 72 -20 17 -46 31
-58 31 -12 0 -41 9 -63 19 -23 10 -57 22 -75 26 -19 4 -37 12 -40 17 -3 5 -50
20 -104 33 -70 18 -103 22 -116 14 -23 -12 -44 -52 -69 -129 -10 -32 -26 -72
-34 -89 -9 -16 -16 -43 -16 -59 0 -15 -6 -36 -13 -46 -12 -17 -14 -17 -20 -2
-3 8 0 37 7 63 16 55 36 179 36 223 0 25 -5 30 -37 40 -82 23 -284 59 -383 69
-58 6 -119 14 -137 16 -44 8 -61 -21 -87 -150 -12 -57 -25 -107 -29 -111 -4
-4 -7 33 -7 82 0 79 -11 174 -26 225 -3 10 -16 16 -37 16 -17 1 -84 3 -147 6
-63 2 -153 1 -200 -4z m-120 -451 c0 -17 -29 -7 -35 12 -10 32 6 46 21 19 7
-13 13 -27 14 -31z m538 26 c-4 -20 -34 -41 -44 -31 -8 8 24 47 38 47 5 0 8
-7 6 -16z m-102 -22 c-5 -8 -76 -4 -76 4 0 2 18 4 41 4 22 0 38 -4 35 -8z
m-369 -8 c-3 -3 -12 -4 -19 -1 -8 3 -5 6 6 6 11 1 17 -2 13 -5z m-724 -60 c18
-71 13 -82 -38 -90 -61 -9 -77 1 -33 20 46 20 59 42 51 92 -8 52 4 39 20 -22z
m1837 -20 c0 -8 16 -22 35 -30 36 -15 47 -34 19 -34 -17 0 -82 28 -88 39 -2 3
0 16 5 29 9 24 29 22 29 -4z m-525 -83 c90 -11 125 -18 345 -68 310 -70 712
-235 945 -388 44 -29 90 -56 103 -60 12 -3 22 -10 22 -15 0 -4 39 -37 86 -72
101 -73 152 -114 252 -200 79 -68 222 -206 222 -215 0 -3 30 -40 68 -83 76
-88 115 -137 154 -195 15 -22 47 -65 72 -95 25 -30 62 -88 82 -129 21 -40 49
-90 62 -110 14 -20 35 -57 47 -83 12 -26 26 -53 32 -60 6 -7 20 -38 31 -68 23
-63 73 -182 106 -255 12 -27 33 -86 45 -130 12 -44 31 -109 41 -145 11 -36 24
-81 29 -100 6 -19 17 -71 25 -115 8 -44 21 -114 29 -155 24 -116 41 -443 34
-630 -7 -173 -29 -378 -44 -420 -5 -14 -15 -59 -22 -100 -7 -41 -24 -115 -38
-165 -14 -49 -30 -112 -35 -140 -5 -27 -13 -54 -18 -60 -4 -5 -13 -28 -19 -50
-7 -22 -21 -60 -31 -85 -11 -25 -33 -80 -50 -124 -17 -43 -39 -91 -50 -106
-11 -15 -36 -70 -56 -121 -19 -52 -43 -103 -52 -114 -26 -31 -57 -76 -81 -120
-12 -22 -36 -59 -54 -81 -43 -56 -88 -117 -139 -189 -71 -100 -352 -388 -472
-483 -74 -60 -108 -84 -191 -139 -27 -18 -66 -44 -85 -58 -130 -96 -437 -255
-615 -320 -55 -20 -114 -43 -132 -51 -18 -8 -63 -22 -100 -30 -37 -9 -95 -24
-128 -35 -350 -107 -964 -132 -1350 -54 -66 14 -154 32 -195 40 -103 21 -256
64 -310 87 -25 11 -74 30 -110 42 -89 32 -145 57 -285 129 -66 34 -154 79
-195 100 -123 63 -141 75 -174 105 -17 16 -60 50 -96 76 -36 26 -72 52 -80 59
-8 7 -35 25 -59 41 -56 36 -397 380 -418 421 -9 17 -32 49 -52 71 -68 78 -84
99 -119 154 -20 30 -46 63 -59 73 -12 10 -25 34 -29 53 -3 19 -14 40 -23 47
-18 14 -26 28 -132 236 -44 85 -79 162 -79 171 0 10 -15 51 -33 91 -19 41 -39
92 -46 114 -7 22 -21 60 -31 85 -10 25 -29 92 -41 150 -11 58 -25 109 -30 115
-5 5 -9 19 -9 32 0 12 -9 62 -21 110 -25 111 -49 399 -49 608 0 185 50 595 89
735 6 19 17 64 26 100 21 84 86 276 123 365 72 169 102 235 124 271 12 22 32
57 43 79 11 22 34 60 52 84 18 24 33 52 33 61 0 9 10 25 21 36 12 10 30 37 40
60 17 38 92 142 136 189 11 11 30 36 43 55 37 55 344 368 452 461 29 25 72 58
96 73 23 14 42 30 42 35 0 8 70 53 139 90 14 7 35 21 46 31 28 24 238 146 266
155 12 4 36 16 53 26 17 11 37 19 44 19 7 0 43 15 81 34 37 18 86 39 107 46
21 6 67 23 101 36 34 13 70 24 80 24 10 0 32 7 48 16 70 38 342 97 565 122
184 22 587 23 755 3z m712 -1 c41 -22 29 -26 -30 -9 -21 5 -35 14 -32 20 9 13
21 11 62 -11z m-2157 -10 c-20 -13 -53 -13 -45 0 3 6 18 10 33 10 21 0 24 -2
12 -10z m2510 -19 c0 -11 -4 -23 -10 -26 -6 -4 -10 5 -10 19 0 14 5 26 10 26
6 0 10 -9 10 -19z m-267 -8 c-7 -2 -19 -2 -25 0 -7 3 -2 5 12 5 14 0 19 -2 13
-5z m-2356 -9 c-3 -3 -12 -4 -19 -1 -8 3 -5 6 6 6 11 1 17 -2 13 -5z m-222
-62 c53 -5 57 -16 14 -31 -53 -18 -68 -14 -84 25 -20 50 -18 64 5 35 14 -16
34 -25 65 -29z m2665 38 c0 -5 -4 -10 -9 -10 -6 0 -13 5 -16 10 -3 6 1 10 9
10 9 0 16 -4 16 -10z m-2538 -16 c-12 -8 -32 -14 -45 -11 -22 4 -22 4 3 15 14
6 34 11 45 11 18 1 18 0 -3 -15z m2690 -19 c-5 -28 -24 -32 -69 -14 l-28 12
40 13 c58 18 63 17 57 -11z m568 -325 c0 -19 -5 -30 -14 -30 -20 0 -29 16 -21
40 10 32 35 25 35 -10z m-3980 -33 c0 -8 -12 -24 -26 -38 -28 -25 -28 -23 -5
24 15 29 31 36 31 14z m4065 -57 c3 -5 -1 -10 -9 -10 -8 0 -18 5 -21 10 -3 6
1 10 9 10 8 0 18 -4 21 -10z m55 -49 c0 -5 9 -11 20 -14 11 -3 20 -10 20 -16
0 -14 -72 31 -78 48 -3 10 0 10 17 2 11 -7 21 -16 21 -20z m-4210 15 c0 -2 -7
-6 -15 -10 -8 -3 -15 -1 -15 4 0 6 7 10 15 10 8 0 15 -2 15 -4z m4560 -141
c-7 -9 -15 -13 -18 -10 -3 2 1 11 8 20 7 9 15 13 18 10 3 -2 -1 -11 -8 -20z
m-80 -75 c0 -12 -28 -25 -36 -17 -9 9 6 27 22 27 8 0 14 -5 14 -10z m-4772
-37 c-4 -20 -18 -26 -37 -14 -18 12 -5 31 20 31 14 0 19 -6 17 -17z m5302
-371 c0 -13 -12 -22 -22 -16 -10 6 -1 24 13 24 5 0 9 -4 9 -8z m-5830 -67 c7
-8 8 -15 2 -15 -5 0 -15 7 -22 15 -7 8 -8 15 -2 15 5 0 15 -7 22 -15z m5720
-40 c0 -28 -17 -34 -27 -9 -3 9 0 20 8 25 19 12 19 12 19 -16z m-5632 -22 c12
-22 5 -43 -14 -43 -9 0 -14 11 -14 30 0 33 14 40 28 13z m6117 -343 c-3 -5
-15 -10 -26 -10 -11 0 -17 5 -14 10 3 6 15 10 26 10 11 0 17 -4 14 -10z
m-6590 -40 c3 -5 -3 -10 -14 -10 -12 0 -21 5 -21 10 0 6 6 10 14 10 8 0 18 -4
21 -10z m6510 0 c-3 -5 -13 -10 -21 -10 -8 0 -12 5 -9 10 3 6 13 10 21 10 8 0
12 -4 9 -10z m-100 -40 c-27 -12 -35 -12 -35 0 0 6 12 10 28 9 24 0 25 -1 7
-9z m-6175 -18 c0 -5 -9 -17 -19 -26 -17 -15 -23 -16 -43 -4 -23 13 -23 13 10
16 17 2 32 7 32 13 0 5 5 9 10 9 6 0 10 -4 10 -8z m6580 -542 c0 -13 -45 -24
-66 -16 -8 3 -12 10 -9 16 8 13 75 13 75 0z m-6995 -50 c4 -6 -7 -10 -24 -10
-17 0 -31 5 -31 10 0 6 11 10 24 10 14 0 28 -4 31 -10z m125 -324 c0 -3 -4 -8
-10 -11 -5 -3 -10 -1 -10 4 0 6 5 11 10 11 6 0 10 -2 10 -4z m-43 -261 c-4 -8
-11 -15 -17 -15 -6 0 -6 7 2 20 14 22 24 19 15 -5z m6803 -626 c-6 -10 -15
-19 -20 -19 -15 0 -12 38 3 43 20 7 28 -3 17 -24z m-6796 -41 c5 -9 7 -20 3
-24 -8 -8 -47 24 -47 38 0 15 32 5 44 -14z m73 -435 c-3 -10 -5 -4 -5 12 0 17
2 24 5 18 2 -7 2 -21 0 -30z m19 -67 c7 -29 -1 -46 -21 -46 -21 0 -26 16 -14
44 15 33 27 33 35 2z m275 -691 c16 -34 29 -67 29 -73 0 -21 -20 -13 -30 12
-5 13 -13 27 -19 30 -5 3 -12 19 -16 35 -5 24 -12 30 -47 35 -33 5 -38 9 -28
21 15 18 51 24 68 11 8 -6 27 -38 43 -71z"/>
<path d="M8565 8550 c11 -5 27 -9 35 -9 13 -1 13 0 0 9 -8 5 -24 9 -35 9 l-20
0 20 -9z"/>
<path d="M7505 8510 c-334 -58 -601 -151 -875 -302 -69 -38 -134 -74 -145 -81
-242 -149 -413 -290 -585 -482 -72 -80 -155 -183 -191 -236 -120 -177 -162
-243 -187 -290 -16 -31 -41 -75 -55 -100 -84 -145 -200 -467 -251 -700 -49
-221 -83 -556 -73 -711 23 -355 118 -745 253 -1043 86 -187 103 -220 173 -325
148 -222 240 -337 387 -485 136 -137 213 -202 423 -351 116 -81 371 -223 468
-259 21 -7 63 -23 93 -35 97 -37 336 -106 420 -121 25 -4 65 -12 90 -18 83
-19 353 -39 520 -37 183 1 350 22 350 43 0 9 -9 11 -32 5 -56 -12 -557 -8
-618 5 -30 7 -95 17 -145 23 -177 23 -501 114 -642 180 -36 17 -84 39 -107 47
-22 9 -54 25 -71 34 -16 10 -74 40 -128 68 -53 28 -117 66 -141 84 -24 17 -72
52 -107 77 -298 212 -585 530 -757 840 -263 472 -376 897 -375 1405 1 233 32
478 84 668 17 62 35 126 39 142 37 139 153 403 238 541 18 28 32 54 32 57 0 7
88 137 160 237 151 210 365 414 638 608 61 43 245 152 302 179 25 12 86 40
135 63 238 111 504 182 830 221 128 15 594 6 715 -15 189 -33 481 -110 555
-148 17 -8 48 -21 70 -28 77 -24 441 -216 465 -245 7 -8 17 -15 23 -15 8 0 88
-59 107 -80 3 -3 34 -25 70 -49 84 -57 274 -236 313 -294 17 -26 57 -38 57
-17 0 43 -445 448 -565 514 -16 9 -59 35 -95 57 -177 113 -548 269 -740 312
-313 71 -455 87 -730 86 -210 -1 -252 -4 -395 -29z"/>
<path d="M8663 8522 c4 -6 21 -13 37 -16 17 -3 44 -9 60 -12 17 -3 30 -1 30 4
0 5 -23 12 -50 16 -28 4 -58 10 -67 13 -10 4 -14 2 -10 -5z"/>
<path d="M8840 8472 c0 -15 24 -32 46 -32 12 0 41 -9 65 -20 24 -11 54 -20 65
-20 12 0 27 -7 34 -15 7 -8 47 -32 89 -53 41 -20 83 -44 93 -52 38 -34 48 -40
66 -40 11 0 30 -8 43 -19 13 -10 33 -21 45 -25 12 -3 52 -31 90 -61 38 -30 83
-62 101 -70 18 -8 37 -24 43 -35 6 -11 17 -20 26 -20 8 0 17 -7 21 -15 3 -9
18 -22 33 -30 16 -8 88 -73 160 -145 73 -71 136 -130 140 -130 5 0 23 -22 41
-49 17 -28 38 -52 45 -55 7 -3 21 -20 30 -38 9 -18 20 -35 23 -38 16 -11 121
-148 121 -156 0 -5 18 -33 40 -62 22 -29 40 -57 40 -63 0 -6 11 -24 25 -41 14
-16 25 -36 25 -44 0 -8 18 -43 39 -77 22 -34 49 -85 60 -114 11 -28 38 -90 61
-136 22 -46 40 -89 40 -95 0 -6 9 -31 20 -54 22 -48 88 -294 101 -378 5 -30
13 -84 18 -120 5 -36 14 -87 21 -115 33 -139 15 -637 -30 -815 -5 -19 -14 -64
-21 -100 -50 -277 -183 -625 -328 -860 -6 -8 -22 -39 -36 -68 -15 -30 -39 -66
-54 -82 -25 -27 -48 -55 -162 -200 -58 -74 -236 -259 -291 -305 -21 -16 -81
-66 -135 -110 -94 -77 -149 -116 -243 -170 -25 -15 -79 -46 -120 -70 -41 -24
-100 -56 -130 -71 -166 -82 -239 -114 -275 -122 -22 -6 -78 -26 -125 -47 -90
-38 -148 -57 -268 -84 -40 -9 -72 -20 -70 -26 2 -5 10 -9 18 -7 8 2 38 7 65
11 28 5 70 14 95 21 25 6 63 16 85 21 77 20 111 31 230 76 66 25 171 70 233
99 62 30 114 54 117 54 2 0 41 23 87 51 46 28 96 58 112 67 28 16 124 87 254
186 140 107 420 400 498 521 10 16 25 36 32 45 38 43 152 232 218 358 141 273
238 562 288 857 54 317 43 773 -25 1065 -72 310 -130 474 -233 665 -9 17 -16
36 -16 43 0 7 -16 36 -35 65 -19 28 -35 55 -35 60 0 4 -8 20 -18 35 -84 123
-102 151 -102 159 0 10 -95 143 -113 158 -7 6 -30 33 -52 60 -119 150 -487
485 -532 485 -4 0 -18 10 -32 23 -37 33 -183 125 -247 154 -29 13 -56 29 -59
34 -4 5 -14 9 -24 9 -10 0 -26 9 -35 19 -17 19 -172 91 -198 91 -7 0 -35 12
-63 25 -27 14 -60 25 -72 25 -12 0 -25 5 -28 10 -7 12 -35 13 -35 2z"/>
<path d="M7819 8259 c-27 -12 -51 -31 -58 -45 -14 -32 -14 -43 2 -24 26 32 67
50 117 50 43 0 50 3 50 20 0 27 -49 26 -111 -1z"/>
<path d="M7977 8241 c-16 -16 -16 -19 -2 -31 21 -18 68 3 63 28 -4 23 -39 25
-61 3z"/>
<path d="M8241 8227 c-14 -6 -26 -17 -28 -24 -6 -17 57 -11 85 8 20 14 21 17
7 23 -24 9 -37 7 -64 -7z"/>
<path d="M8620 8206 c0 -9 5 -16 10 -16 6 0 10 4 10 9 0 6 -4 13 -10 16 -5 3
-10 -1 -10 -9z"/>
<path d="M7040 8195 c15 -19 -3 -45 -31 -45 -29 0 -31 -16 -3 -29 36 -16 43
-14 55 16 11 30 -2 73 -22 73 -8 0 -8 -4 1 -15z"/>
<path d="M7375 8192 c-33 -11 -60 -30 -53 -37 3 -4 15 -2 26 4 12 6 34 11 51
11 34 0 49 15 25 24 -18 7 -21 7 -49 -2z"/>
<path d="M8650 8165 c0 -4 15 -21 33 -40 47 -49 160 -72 202 -41 18 13 18 14
-2 24 -12 7 -47 14 -79 18 -55 5 -83 13 -126 35 -20 10 -28 11 -28 4z"/>
<path d="M7732 8135 c0 -16 2 -22 5 -12 2 9 2 23 0 30 -3 6 -5 -1 -5 -18z"/>
<path d="M8171 8133 c0 -25 1 -26 9 -8 12 27 12 35 0 35 -5 0 -10 -12 -9 -27z"/>
<path d="M8599 8113 c-13 -15 -11 -16 11 -10 14 4 31 7 38 7 6 0 12 5 12 10 0
16 -46 11 -61 -7z"/>
<path d="M7074 8085 c-10 -26 6 -38 27 -19 10 9 16 21 13 25 -8 14 -34 10 -40
-6z"/>
<path d="M9040 8058 c0 -7 9 -28 20 -46 26 -42 26 -42 -10 -42 -24 0 -33 -6
-40 -26 -15 -37 -12 -40 10 -16 26 27 40 27 90 2 21 -11 59 -24 84 -30 51 -11
129 -3 123 13 -1 5 -48 25 -102 45 -106 37 -135 54 -135 82 0 10 -7 21 -16 24
-22 8 -24 8 -24 -6z"/>
<path d="M7814 7993 c4 -9 2 -19 -4 -23 -7 -4 7 -12 29 -17 32 -9 43 -8 52 3
14 17 15 16 -39 37 -40 15 -43 15 -38 0z"/>
<path d="M8380 7945 c-13 -14 -28 -25 -34 -25 -6 0 -22 -9 -36 -20 -18 -14
-20 -20 -9 -20 25 0 63 22 88 52 29 36 23 47 -9 13z"/>
<path d="M6748 7924 c-16 -8 -28 -17 -28 -19 0 -11 19 -4 41 15 29 23 24 25
-13 4z"/>
<path d="M8258 7933 c7 -3 16 -2 19 1 4 3 -2 6 -13 5 -11 0 -14 -3 -6 -6z"/>
<path d="M7546 7915 c-3 -8 -1 -15 4 -15 6 0 10 7 10 15 0 8 -2 15 -4 15 -2 0
-6 -7 -10 -15z"/>
<path d="M7955 7880 c-3 -5 -1 -10 4 -10 6 0 11 5 11 10 0 6 -2 10 -4 10 -3 0
-8 -4 -11 -10z"/>
<path d="M8987 7863 c-11 -10 -8 -63 3 -63 6 0 10 16 10 35 0 36 -2 40 -13 28z"/>
<path d="M8650 7848 c0 -23 23 -48 43 -48 31 0 65 26 52 38 -14 13 -95 22 -95
10z"/>
<path d="M9438 7818 c44 -15 40 -26 -10 -30 -36 -2 -45 -8 -57 -32 -16 -34 -3
-66 37 -92 36 -24 37 -10 1 25 -29 30 -30 33 -15 50 11 12 25 16 41 13 14 -2
32 1 40 8 13 11 22 9 50 -6 39 -21 42 -29 18 -56 -15 -17 -15 -20 0 -35 13
-13 19 -14 31 -3 24 19 19 62 -9 90 -57 59 -94 81 -134 79 -25 -1 -24 -2 7
-11z"/>
<path d="M7130 7805 c0 -8 5 -15 10 -15 6 0 10 7 10 15 0 8 -4 15 -10 15 -5 0
-10 -7 -10 -15z"/>
<path d="M6489 7764 c-11 -14 -9 -15 21 -12 18 2 35 9 38 16 6 18 -43 15 -59
-4z"/>
<path d="M6980 7745 c-10 -12 -10 -15 3 -15 8 0 20 7 27 15 10 12 10 15 -3 15
-8 0 -20 -7 -27 -15z"/>
<path d="M7874 7748 c-3 -4 15 -8 40 -8 25 0 46 2 46 4 0 8 -82 11 -86 4z"/>
<path d="M9000 7741 c0 -10 7 -24 15 -31 18 -15 20 -37 3 -43 -21 -7 -6 -15
49 -25 39 -7 57 -6 70 3 15 11 15 15 4 29 -7 9 -22 16 -33 16 -28 0 -77 31
-84 52 -7 24 -24 23 -24 -1z"/>
<path d="M8058 7743 c7 -3 16 -2 19 1 4 3 -2 6 -13 5 -11 0 -14 -3 -6 -6z"/>
<path d="M7770 7730 c0 -5 5 -10 10 -10 6 0 10 5 10 10 0 6 -4 10 -10 10 -5 0
-10 -4 -10 -10z"/>
<path d="M8130 7731 c0 -11 26 -22 34 -14 3 3 3 10 0 14 -7 12 -34 11 -34 0z"/>
<path d="M8236 7733 c-9 -9 83 -43 119 -43 17 -1 55 -9 85 -20 30 -11 64 -19
75 -20 11 0 49 -14 83 -30 35 -17 71 -30 80 -30 22 0 119 -46 138 -65 9 -8 23
-15 32 -15 10 0 40 -15 67 -33 28 -18 70 -43 95 -56 25 -13 55 -28 67 -35 12
-6 27 -21 32 -33 6 -13 18 -23 27 -23 23 0 102 -60 110 -83 3 -10 20 -25 37
-33 18 -9 46 -31 62 -50 17 -18 56 -59 88 -90 31 -31 57 -62 57 -69 0 -7 23
-36 51 -66 27 -29 53 -66 56 -82 3 -16 12 -31 20 -34 21 -8 73 -89 73 -114 0
-13 11 -33 24 -44 30 -26 56 -77 56 -110 0 -14 9 -34 19 -44 29 -29 54 -88 48
-113 -4 -12 1 -32 12 -47 27 -38 44 -98 36 -128 -4 -19 0 -32 16 -49 17 -19
22 -37 24 -93 1 -39 8 -77 14 -85 8 -9 12 -41 10 -83 -1 -37 2 -91 6 -120 5
-31 3 -63 -3 -83 -8 -23 -8 -44 0 -81 10 -42 9 -55 -5 -85 -10 -19 -14 -40
-11 -46 11 -18 5 -120 -8 -136 -7 -8 -13 -38 -14 -67 0 -36 -8 -64 -24 -91
-14 -24 -22 -53 -21 -77 1 -37 -28 -109 -49 -122 -5 -3 -10 -24 -10 -45 0 -29
-8 -48 -30 -73 -16 -19 -30 -42 -30 -51 0 -27 -46 -109 -74 -133 -14 -13 -26
-33 -26 -47 0 -13 -18 -43 -41 -70 -22 -25 -51 -65 -63 -88 -12 -24 -36 -52
-54 -63 -17 -11 -35 -31 -40 -45 -5 -14 -28 -41 -51 -60 -23 -19 -66 -60 -97
-92 -30 -31 -66 -59 -79 -62 -13 -3 -34 -20 -46 -37 -13 -18 -45 -42 -76 -55
-29 -13 -53 -28 -53 -33 0 -12 -73 -59 -103 -67 -14 -3 -34 -15 -44 -26 -21
-23 -94 -58 -122 -58 -11 0 -23 -5 -26 -10 -12 -19 -84 -50 -116 -50 -19 0
-42 -9 -54 -20 -12 -11 -47 -25 -81 -31 -32 -6 -88 -19 -122 -30 -35 -10 -74
-16 -87 -13 -13 3 -34 0 -47 -7 -12 -7 -68 -17 -123 -21 -116 -10 -117 -10
-210 -4 -38 3 -117 8 -175 11 -58 4 -123 12 -145 20 -22 7 -66 16 -98 19 -32
4 -68 12 -80 20 -12 8 -40 17 -62 21 -22 4 -58 16 -80 27 -22 11 -67 28 -101
39 -33 10 -71 28 -84 39 -13 11 -29 20 -37 20 -8 0 -31 9 -53 20 -45 23 -50
24 -50 10 0 -14 76 -60 98 -60 11 0 31 -9 45 -20 33 -26 106 -59 131 -60 11 0
27 -6 35 -13 18 -15 114 -47 141 -47 10 0 37 -9 61 -20 24 -11 62 -20 85 -20
22 0 45 -5 50 -10 26 -26 376 -43 564 -28 169 14 344 49 434 87 26 12 57 21
68 21 11 0 48 13 82 29 33 15 85 39 114 51 29 13 57 29 63 36 6 7 27 18 47 25
44 14 199 117 259 171 47 42 73 49 73 18 0 -18 3 -19 22 -9 21 11 21 12 4 25
-20 14 -15 44 8 44 7 0 16 -8 20 -17 3 -10 11 -26 18 -35 10 -15 9 -20 -6 -31
-16 -12 -17 -16 -5 -35 11 -17 11 -28 1 -54 -13 -34 -3 -58 25 -58 11 0 13 -5
8 -17 -4 -10 -10 -30 -13 -45 -4 -28 -16 -33 -46 -22 -22 8 -20 37 4 59 20 18
20 18 -10 36 -34 21 -40 40 -11 32 19 -5 38 12 24 20 -5 3 -34 8 -66 12 l-58
7 3 -48 c3 -47 2 -48 -32 -58 -19 -6 -42 -18 -52 -28 -10 -10 -29 -20 -43 -24
-31 -8 -31 -11 1 -45 37 -39 45 -136 16 -201 -29 -66 -59 -82 -143 -80 -38 2
-69 -1 -69 -6 0 -5 22 -33 49 -62 27 -30 49 -61 49 -69 -1 -9 3 -28 7 -43 6
-24 4 -28 -22 -34 -44 -11 -46 -14 -18 -36 58 -45 149 24 108 82 -8 12 -13 23
-12 25 2 1 42 5 88 8 83 6 85 6 128 49 64 61 74 86 74 178 0 56 4 82 15 91 20
17 17 28 -6 22 -30 -8 -35 21 -9 56 28 38 46 39 59 6 5 -14 18 -28 27 -31 10
-3 26 -10 36 -15 11 -6 17 -6 17 2 0 6 6 9 14 6 8 -3 17 -3 20 0 9 10 66 11
66 2 0 -5 -5 -8 -11 -6 -6 1 -14 -4 -16 -10 -3 -7 2 -13 11 -13 12 0 16 -10
16 -35 0 -24 -5 -35 -15 -35 -9 0 -15 9 -15 24 0 15 -7 26 -20 29 -18 5 -18 4
-3 -19 14 -22 14 -24 -1 -24 -9 0 -21 -11 -26 -25 -11 -29 -22 -31 -40 -10 -7
9 -23 15 -34 13 -22 -3 -25 -21 -11 -66 6 -19 2 -24 -24 -33 -27 -10 -30 -14
-24 -37 13 -50 9 -67 -14 -70 -12 -2 -43 -24 -70 -49 -26 -26 -57 -47 -68 -48
-11 -1 -35 -16 -54 -33 -32 -31 -32 -32 -9 -32 13 0 28 4 34 9 5 5 49 30 98
56 80 42 124 69 221 135 155 106 236 174 375 312 160 160 182 186 270 318 9
14 43 63 75 110 32 47 75 117 95 155 21 39 44 84 53 100 112 209 222 562 267
860 17 107 24 515 11 591 -7 38 -16 118 -21 179 -10 114 -23 186 -46 245 -7
19 -19 58 -25 85 -6 28 -14 59 -19 70 -14 35 -42 108 -70 185 -43 117 -72 180
-118 257 -23 39 -42 75 -42 80 0 5 -11 24 -25 43 -34 46 -32 22 4 -46 17 -30
33 -75 36 -99 5 -27 13 -45 22 -47 24 -5 44 -77 33 -118 -6 -19 -10 -47 -10
-62 0 -16 -3 -28 -8 -28 -4 0 -6 -17 -4 -38 3 -28 -1 -42 -16 -56 -20 -17 -21
-17 -42 4 -12 12 -19 27 -17 33 4 13 -21 36 -40 37 -7 0 -13 -7 -13 -15 0 -29
-32 -15 -81 35 -31 32 -54 47 -64 44 -10 -4 -15 0 -15 10 0 18 -16 21 -26 5
-5 -8 -9 -8 -14 1 -10 17 -63 1 -56 -17 3 -8 2 -12 -3 -9 -5 3 -6 -15 -3 -41
3 -33 2 -44 -7 -39 -7 5 -11 0 -11 -13 0 -16 -6 -21 -25 -21 -16 0 -25 6 -25
15 0 26 -46 18 -68 -12 l-20 -27 -16 32 c-9 17 -16 35 -16 41 0 5 -13 23 -30
39 -16 17 -30 40 -30 51 0 12 -4 21 -9 21 -5 0 -11 10 -15 23 -3 12 -23 42
-46 67 -22 24 -40 49 -40 56 0 6 -18 30 -40 52 -22 22 -40 44 -40 50 0 27
-289 293 -370 340 -25 15 -60 41 -79 59 -19 18 -42 33 -51 33 -10 0 -33 13
-52 28 -20 15 -55 36 -79 46 -24 10 -51 22 -59 27 -57 34 -112 59 -129 59 -11
0 -35 9 -53 19 -18 10 -58 24 -88 31 -30 7 -80 21 -111 31 -30 11 -69 19 -86
19 -16 0 -43 4 -59 9 -50 16 -81 21 -88 14z m1684 -1147 c0 -7 7 -19 15 -26 8
-7 15 -17 15 -22 0 -6 -6 -6 -14 1 -7 6 -20 9 -29 5 -19 -7 -30 10 -22 36 7
23 35 27 35 6z m-66 -12 c9 -3 16 -15 16 -26 0 -12 7 -26 17 -33 9 -7 14 -19
10 -29 -9 -22 -27 -20 -27 2 0 11 -9 29 -20 42 -11 13 -20 29 -20 37 0 15 2
15 24 7z m96 -121 c0 -43 -5 -41 -13 5 -4 18 -2 32 3 32 6 0 10 -16 10 -37z
m-37 -48 c4 -8 2 -17 -3 -20 -6 -4 -10 3 -10 14 0 25 6 27 13 6z m33 -22 c-10
-10 -19 5 -10 18 6 11 8 11 12 0 2 -7 1 -15 -2 -18z m585 -324 c13 -24 2 -46
-27 -53 -13 -4 -24 -13 -24 -22 0 -11 -4 -12 -19 -4 -16 8 -19 17 -14 48 6 45
39 78 60 60 8 -6 18 -19 24 -29z m-410 -11 c17 -31 -21 -62 -65 -52 -41 8 -41
8 -26 44 10 25 18 30 46 30 24 0 37 -6 45 -22z m148 -92 c72 -46 96 -179 45
-255 -29 -45 -57 -55 -113 -42 -46 10 -83 48 -101 102 -19 57 13 144 69 187
23 17 47 32 52 32 5 0 27 -11 48 -24z m287 -32 c-4 -9 -1 -24 6 -33 7 -9 -2
-3 -20 13 -18 17 -32 31 -32 33 0 2 12 3 26 3 20 0 25 -4 20 -16z m36 -298
c33 -42 26 -52 -16 -23 -17 12 -33 23 -35 24 -6 4 8 33 16 33 4 0 20 -15 35
-34z m-52 -48 c18 -33 8 -45 -40 -50 -30 -3 -35 0 -38 20 -4 28 25 64 47 60 8
-2 22 -15 31 -30z m-395 -18 c8 -26 1 -36 -32 -45 -20 -5 -31 -2 -40 11 -17
24 -16 31 7 54 24 24 54 14 65 -20z m450 -80 c-3 -5 -11 -10 -16 -10 -6 0 -7
5 -4 10 3 6 11 10 16 10 6 0 7 -4 4 -10z m-643 -584 c14 -20 8 -45 -11 -56
-27 -14 -50 -3 -58 28 -10 42 44 64 69 28z m27 -169 c23 -11 31 -27 51 -107
11 -40 -10 -129 -34 -149 -7 -6 -37 -18 -66 -25 -44 -11 -58 -12 -84 -1 -90
38 -88 200 2 262 47 31 95 39 131 20z m342 -44 c14 -39 5 -53 -36 -53 -40 0
-51 15 -41 55 5 20 13 25 36 25 24 0 33 -6 41 -27z m-594 -209 c20 -31 9 -57
-26 -62 -45 -7 -66 36 -33 69 24 25 39 23 59 -7z m-189 -106 c-6 -18 -28 -21
-28 -4 0 9 7 16 16 16 9 0 14 -5 12 -12z m27 -38 c-6 -9 -9 -9 -16 1 -10 17 0
34 13 21 6 -6 7 -16 3 -22z m615 -11 c-7 -11 -14 -18 -17 -15 -8 8 5 36 17 36
7 0 7 -6 0 -21z m-660 -13 c0 -2 -11 -6 -25 -8 -14 -3 -25 -1 -25 3 0 5 11 9
25 9 14 0 25 -2 25 -4z m567 -60 c-1 -11 -14 -23 -31 -29 -24 -8 -32 -6 -43 9
-20 28 -16 52 15 68 25 14 28 13 44 -7 10 -12 17 -31 15 -41z m-269 -174 c2
-6 -8 -14 -22 -18 -17 -4 -26 -13 -26 -26 0 -10 -4 -16 -10 -13 -13 8 -13 41
0 65 8 15 16 17 32 11 12 -4 24 -13 26 -19z m-171 -164 c18 -23 23 -75 9 -87
-16 -13 -37 -11 -49 4 -6 6 -10 6 -14 -2 -5 -15 -33 -18 -33 -4 0 5 7 11 15
15 10 3 15 19 15 46 0 35 3 40 24 40 13 0 28 -6 33 -12z m-339 -56 c5 -17 -27
-27 -41 -13 -9 9 -8 14 3 21 18 11 32 8 38 -8z m247 -212 c3 -5 1 -10 -4 -10
-6 0 -11 5 -11 10 0 6 2 10 4 10 3 0 8 -4 11 -10z m-90 -130 c-3 -5 -13 -10
-21 -10 -8 0 -12 5 -9 10 3 6 13 10 21 10 8 0 12 -4 9 -10z"/>
<path d="M7780 7650 c-8 -5 -31 -10 -50 -10 -24 0 -30 -3 -20 -9 19 -10 120 1
123 14 3 14 -35 17 -53 5z"/>
<path d="M7917 7653 c-20 -2 -35 -8 -32 -14 7 -10 58 -12 92 -3 26 7 21 25 -5
22 -9 -1 -34 -3 -55 -5z"/>
<path d="M8028 7649 c-45 -11 47 -32 107 -24 31 3 56 2 59 -4 3 -5 37 -12 74
-16 37 -3 76 -10 87 -14 36 -15 99 -26 123 -23 45 7 15 27 -49 34 -35 3 -81
13 -101 22 -20 9 -44 13 -53 10 -8 -4 -37 0 -63 7 -49 14 -144 18 -184 8z"/>
<path d="M7620 7635 c-14 -7 -52 -17 -85 -20 -33 -4 -74 -16 -91 -26 -17 -10
-48 -19 -69 -19 -22 0 -58 -12 -92 -30 -30 -16 -65 -30 -78 -30 -12 0 -46 -15
-74 -34 -28 -19 -65 -38 -83 -41 -18 -4 -53 -25 -77 -46 -24 -22 -52 -39 -63
-39 -10 0 -40 -20 -66 -44 -26 -25 -60 -48 -74 -51 -15 -4 -42 -26 -60 -50
-18 -23 -50 -52 -70 -64 -21 -12 -38 -26 -38 -31 0 -16 -61 -80 -91 -96 -16
-8 -29 -21 -29 -29 0 -7 -22 -39 -49 -70 -60 -69 -113 -162 -83 -146 11 6 27
29 36 51 9 22 23 43 31 47 9 3 35 33 60 67 24 34 58 75 77 92 18 17 42 44 52
58 11 15 31 34 45 41 15 7 42 29 60 47 63 60 165 137 211 159 25 11 59 31 77
45 18 13 51 33 75 43 24 10 67 32 96 50 29 17 62 31 72 31 11 0 39 9 62 19 57
25 169 57 243 69 82 13 145 40 125 52 -19 12 -20 12 -50 -5z"/>
<path d="M9465 7583 c14 -51 11 -67 -16 -80 -19 -9 -40 -10 -75 -4 -51 10 -88
-1 -81 -22 5 -16 65 -28 112 -21 98 13 95 11 95 62 0 62 -9 92 -27 92 -12 0
-13 -6 -8 -27z"/>
<path d="M9260 7591 c0 -5 8 -17 17 -27 20 -20 32 -1 13 21 -14 17 -30 20 -30
6z"/>
<path d="M8525 7551 c11 -18 106 -44 118 -32 14 14 6 21 -40 32 -50 11 -86 11
-78 0z"/>
<path d="M7820 7520 c-185 -22 -338 -60 -348 -88 -10 -30 133 -19 169 14 18
16 38 19 143 19 l121 0 71 -43 c89 -53 217 -169 292 -262 31 -40 119 -147 194
-239 76 -91 138 -169 138 -173 0 -31 -167 29 -275 98 -27 18 -92 55 -144 84
-117 64 -142 80 -261 165 -137 97 -217 135 -284 135 -36 0 -71 8 -109 26 -45
20 -60 23 -77 14 -11 -6 -20 -16 -20 -24 0 -7 49 -34 109 -61 60 -26 124 -60
142 -74 63 -50 208 -202 242 -254 19 -29 58 -74 87 -101 39 -36 49 -51 39 -57
-11 -6 -11 -11 -2 -20 9 -9 16 -9 28 1 13 11 20 10 43 -7 15 -11 41 -23 57
-27 17 -4 47 -18 67 -32 21 -13 42 -24 48 -24 38 0 124 -88 164 -167 44 -87
32 -111 -21 -42 -58 75 -202 189 -239 189 -9 0 6 -124 25 -205 11 -49 26 -113
32 -142 16 -71 5 -238 -21 -333 -11 -41 -25 -95 -30 -120 -5 -25 -21 -76 -36
-115 -27 -66 -28 -79 -29 -225 l0 -155 61 -135 c33 -74 73 -168 89 -207 29
-76 51 -97 42 -40 -9 56 -45 209 -67 287 -28 99 -34 143 -25 177 6 26 7 27 20
9 8 -10 19 -41 25 -69 10 -47 55 -121 98 -160 19 -17 20 -17 26 14 10 49 7 74
-13 141 -10 35 -24 84 -30 110 -6 26 -24 76 -40 110 -16 35 -33 77 -37 93 -4
17 -13 43 -22 59 -27 54 17 262 49 229 4 -4 13 -46 19 -92 6 -46 20 -104 31
-130 l20 -46 -6 79 c-4 44 -8 152 -11 240 -2 89 -7 175 -11 191 -4 17 -6 38
-4 48 1 10 -5 27 -15 38 -17 18 -35 94 -38 154 -1 37 23 41 40 7 6 -13 17 -29
23 -35 6 -6 11 -18 11 -27 -1 -8 29 -74 66 -146 l67 -131 4 -107 c5 -120 15
-161 39 -152 9 3 25 -5 41 -22 l26 -27 -9 40 c-5 22 -8 79 -7 128 2 103 16
132 80 173 52 33 63 50 63 99 0 46 16 76 35 69 27 -11 17 -72 -30 -169 -45
-95 -75 -207 -75 -281 0 -76 15 -56 26 36 8 58 18 98 28 108 22 22 26 14 30
-63 3 -57 8 -71 30 -92 14 -13 26 -30 26 -37 0 -11 24 -15 104 -18 57 -1 108
-6 111 -10 4 -4 -4 -21 -19 -38 -17 -20 -26 -43 -26 -65 0 -50 -8 -64 -51 -86
-44 -22 -47 -29 -21 -46 18 -11 45 -8 137 16 54 14 55 14 55 -9 0 -34 -43 -51
-147 -61 -97 -8 -98 -8 -120 17 -13 14 -23 38 -23 54 0 30 -14 47 -25 30 -11
-17 -41 -11 -62 13 -27 30 -63 95 -63 113 0 19 -29 64 -42 64 -15 0 2 -69 36
-144 21 -49 27 -71 18 -74 -7 -2 -12 -8 -12 -12 0 -14 88 -93 148 -135 61 -42
93 -41 133 1 29 31 90 64 119 64 24 0 24 -3 5 -40 -21 -40 -97 -82 -164 -92
-49 -6 -63 -4 -107 17 -28 14 -75 50 -105 80 -55 56 -129 97 -129 73 0 -44
124 -299 171 -353 9 -11 24 -36 32 -55 8 -20 35 -54 61 -77 53 -47 61 -68 19
-52 -16 6 -42 21 -60 35 -17 13 -36 24 -42 24 -6 0 -11 7 -11 15 0 8 -9 15
-19 15 -10 0 -47 21 -81 48 -115 88 -123 93 -133 83 -6 -6 -15 -73 -22 -149
-12 -150 -28 -194 -82 -229 -24 -16 -25 -20 -19 -82 4 -35 14 -77 24 -93 27
-46 10 -58 -149 -109 -179 -58 -218 -67 -251 -58 -29 7 -42 -8 -32 -36 8 -19
12 -19 57 5 21 11 59 23 85 26 97 11 185 36 267 74 47 21 85 44 85 49 0 6 -5
19 -11 29 -9 14 -8 26 5 50 16 32 16 32 -9 42 -14 5 -25 12 -25 15 0 12 33 69
67 118 34 48 39 67 59 205 4 23 11 45 16 48 5 3 29 -10 53 -30 24 -20 49 -36
56 -36 6 0 35 -15 63 -34 28 -18 70 -43 94 -55 23 -12 42 -28 42 -37 0 -29
-83 -170 -144 -247 -79 -98 -193 -192 -281 -232 -86 -39 -362 -115 -419 -115
-62 0 -28 54 42 65 78 13 88 16 72 25 -16 8 -135 -7 -160 -20 -8 -4 -13 -14
-11 -22 2 -7 6 -26 9 -42 4 -26 3 -28 -19 -23 -99 25 -214 35 -399 35 -117 0
-217 5 -233 11 -28 11 -37 44 -16 57 7 4 9 23 5 50 -3 28 -1 52 9 71 19 36 19
49 0 57 -8 3 -15 12 -15 20 0 12 12 14 63 11 107 -6 279 -25 289 -31 5 -4 3
-13 -5 -22 -26 -30 -27 -61 -4 -74 20 -11 18 -13 -28 -24 l-50 -11 50 -8 c64
-10 67 -12 52 -36 -17 -28 4 -39 81 -39 64 0 86 14 65 43 -10 14 -9 183 2 210
7 16 -2 17 -139 13 -120 -4 -146 -2 -146 9 0 18 35 37 79 44 27 5 36 12 42 34
4 16 20 45 35 64 43 56 147 251 173 323 43 118 75 179 97 186 17 4 23 18 32
71 9 56 4 113 -11 113 -5 0 -69 -129 -123 -250 -158 -355 -234 -480 -332 -547
-58 -41 -90 -46 -172 -30 l-65 12 0 37 c0 22 -8 44 -20 58 l-20 22 -11 -28
c-9 -20 -8 -37 2 -72 8 -24 13 -59 13 -76 -1 -17 2 -74 6 -126 9 -125 -13
-190 -43 -125 -15 32 -45 44 -149 59 -45 7 -88 18 -96 24 -8 7 -17 33 -21 58
-3 25 -13 67 -22 93 -27 77 -17 348 13 358 6 2 38 -28 70 -66 31 -39 62 -71
67 -71 6 0 20 -12 32 -28 12 -15 26 -23 30 -19 4 4 -4 19 -19 33 -15 14 -27
31 -27 39 0 7 -17 28 -38 47 -45 39 -97 127 -107 180 -10 52 31 117 103 166
20 13 25 13 32 2 6 -10 15 -5 37 21 15 18 53 56 83 84 94 86 122 118 147 173
45 95 15 123 -35 32 -30 -53 -93 -120 -115 -120 -9 0 -114 -90 -221 -190 -78
-73 -123 -155 -150 -273 -20 -85 -20 -147 -1 -262 19 -117 19 -126 -5 -89 -11
17 -30 69 -41 115 -12 46 -28 96 -35 111 -8 15 -14 53 -14 85 0 51 -1 55 -13
38 -8 -11 -21 -40 -31 -65 -22 -55 -15 -99 23 -143 15 -17 38 -63 51 -102 46
-143 100 -234 195 -329 28 -29 67 -59 87 -69 71 -34 93 -15 57 49 -13 24 -20
46 -16 50 3 4 33 -3 65 -15 48 -18 60 -28 70 -55 17 -45 15 -60 -8 -81 -22
-20 -23 -56 -4 -62 20 -7 43 26 60 83 23 81 26 83 130 67 49 -7 182 -16 297
-19 l207 -7 47 -56 c116 -139 180 -189 229 -177 36 9 32 54 -7 92 -17 16 -37
43 -44 59 -8 17 -22 42 -31 57 -23 35 -8 54 51 63 99 14 315 83 372 118 124
76 250 219 322 367 43 88 50 93 140 99 55 4 86 11 97 23 21 20 12 45 -19 57
-41 16 -87 61 -87 86 0 47 70 173 120 215 3 3 19 23 36 44 l29 39 1 246 c0
135 -3 262 -8 282 -7 32 -60 97 -111 137 -39 30 -37 -6 4 -52 33 -38 34 -70 4
-110 -12 -16 -19 -17 -42 -8 -15 6 -57 17 -92 23 -95 18 -134 68 -71 90 36 13
39 29 6 29 -42 0 -49 20 -43 135 4 57 11 113 17 124 18 34 11 64 -22 99 -32
32 -32 34 -14 48 11 8 30 14 41 14 24 0 145 -74 145 -88 0 -14 100 -112 114
-112 7 0 25 -13 41 -30 16 -16 32 -30 37 -30 16 0 7 33 -17 62 -14 16 -25 39
-25 50 0 13 -5 18 -14 15 -22 -9 -85 40 -92 71 -6 28 -56 199 -98 337 -13 44
-41 125 -61 180 -20 55 -47 132 -59 172 -13 39 -40 108 -61 153 -26 55 -35 84
-28 91 20 20 79 -29 137 -114 31 -45 76 -110 100 -143 34 -49 46 -79 60 -145
54 -265 81 -378 86 -358 3 12 -3 81 -12 153 -38 281 -39 286 -12 286 7 0 25
-17 38 -37 13 -21 45 -62 70 -91 53 -62 108 -172 129 -258 17 -72 21 -220 7
-294 -5 -30 -15 -92 -22 -137 -13 -89 -26 -105 -58 -71 -32 35 -35 13 -5 -54
31 -72 52 -108 63 -108 4 0 7 39 8 88 0 115 40 272 69 272 7 0 15 -10 18 -22
10 -39 29 -350 25 -412 -3 -61 -21 -85 -36 -49 -15 35 -47 83 -56 83 -4 0 -5
-8 -1 -17 4 -10 11 -32 15 -49 4 -17 22 -58 39 -91 19 -35 29 -66 25 -76 -4
-11 -1 -17 9 -17 9 0 19 13 23 33 l8 32 7 -40 c7 -35 5 -43 -17 -60 -29 -25
-32 -61 -4 -68 11 -3 20 -12 20 -20 0 -7 -9 -22 -20 -32 -16 -14 -20 -31 -20
-75 0 -44 -5 -63 -25 -89 -19 -26 -22 -38 -14 -52 7 -15 5 -24 -10 -41 -14
-15 -20 -34 -19 -60 1 -21 -4 -44 -10 -50 -7 -7 -12 -20 -12 -30 0 -10 -13
-37 -30 -59 -23 -32 -28 -47 -23 -72 7 -40 20 -57 44 -57 15 0 16 -4 9 -31 -5
-17 -17 -43 -25 -56 -9 -14 -15 -30 -12 -36 7 -19 -11 -57 -28 -57 -8 0 -21
11 -27 25 -13 28 -30 32 -48 11 -20 -25 -8 -60 28 -75 26 -12 32 -20 31 -45 0
-17 -3 -25 -6 -18 -13 32 -56 -6 -55 -48 0 -16 -6 -34 -14 -41 -22 -18 -17
-27 22 -44 49 -20 55 -19 48 10 -4 18 -1 27 10 31 9 3 16 12 16 19 0 21 27 37
50 30 15 -5 19 -12 15 -26 -4 -13 -2 -19 9 -19 9 0 16 3 16 8 0 9 44 61 98
114 23 24 36 45 34 58 -2 12 2 19 9 18 6 -2 16 12 21 30 5 17 12 32 16 32 18
0 52 42 52 64 0 12 10 32 23 44 36 34 120 210 137 289 6 25 17 57 24 72 8 14
19 53 26 86 7 33 17 69 23 80 6 11 12 48 14 83 2 35 7 71 11 80 5 9 7 67 5
127 -8 292 -8 296 -22 305 -12 7 -13 11 -1 25 11 13 11 23 0 58 -8 23 -13 45
-12 49 1 4 -5 25 -14 47 -12 30 -13 44 -5 60 9 16 6 25 -15 48 -30 32 -44 64
-44 97 0 13 -9 30 -20 37 -23 16 -44 76 -30 84 11 7 2 35 -11 35 -5 0 -9 -9
-9 -20 0 -24 -22 -26 -40 -5 -7 8 -17 15 -23 15 -6 0 -19 7 -29 17 -20 18 -34
12 -25 -12 4 -8 16 -15 27 -15 12 0 20 -7 20 -16 0 -9 8 -22 17 -29 15 -11 15
-15 4 -29 -9 -10 -21 -14 -33 -10 -20 6 -51 -23 -41 -39 8 -14 12 -227 3 -232
-4 -3 -11 -23 -15 -44 -5 -29 -1 -49 14 -80 12 -23 26 -41 31 -41 18 0 11 -18
-9 -23 -15 -4 -21 -17 -26 -62 -4 -31 -5 -76 -2 -100 5 -34 3 -44 -9 -49 -34
-13 -37 4 -30 150 7 166 -13 329 -46 374 -12 17 -24 62 -34 126 -45 308 -151
506 -325 607 -20 12 -52 43 -70 70 -38 56 -133 146 -192 184 -22 13 -60 31
-86 39 -25 7 -79 38 -119 69 -131 99 -233 137 -357 134 -84 -3 -94 -1 -150 29
-93 49 -157 58 -295 42z m500 -121 c93 -35 196 -97 234 -141 141 -162 252
-368 311 -578 7 -25 31 -92 54 -149 41 -103 54 -187 29 -179 -7 2 -29 38 -49
79 -20 41 -59 99 -86 129 -103 114 -258 328 -358 494 -69 115 -145 229 -191
285 -24 29 -44 60 -44 67 0 20 36 17 100 -7z m-375 -381 c44 -34 94 -73 110
-88 38 -35 175 -112 274 -155 258 -111 421 -211 421 -259 0 -8 -11 -23 -25
-32 -41 -27 -56 -99 -49 -234 7 -128 11 -119 -64 -161 -43 -23 -44 -23 -58 -5
-7 10 -11 22 -8 27 2 4 -3 26 -12 48 -21 54 -16 86 14 85 22 -1 23 2 17 35
-13 76 -66 237 -83 253 -9 9 -65 41 -123 71 -58 29 -131 75 -163 100 -31 26
-69 55 -84 64 -103 65 -173 136 -286 291 l-39 53 39 -16 c21 -8 74 -43 119
-77z m1652 -718 c9 -13 9 -21 2 -25 -18 -12 -38 3 -32 24 7 26 15 26 30 1z
m-678 -1066 c31 10 65 15 82 11 20 -5 36 0 58 16 63 47 45 -16 -27 -90 -19
-20 -50 -70 -68 -111 -18 -41 -40 -79 -49 -85 -24 -15 -46 19 -38 57 6 28 5
29 -15 17 -25 -15 -52 2 -52 33 0 10 -25 57 -56 103 -76 114 -69 129 34 73
l78 -42 53 18z m531 -634 c0 -5 -2 -10 -4 -10 -3 0 -8 5 -11 10 -3 6 -1 10 4
10 6 0 11 -4 11 -10z m-102 -27 c-4 -22 -22 -20 -26 1 -2 10 3 16 13 16 10 0
15 -7 13 -17z"/>
<path d="M10050 7524 c0 -14 41 -57 48 -49 3 3 -6 18 -21 33 -15 14 -27 22
-27 16z"/>
<path d="M6615 7500 c-3 -5 -1 -10 4 -10 6 0 11 5 11 10 0 6 -2 10 -4 10 -3 0
-8 -4 -11 -10z"/>
<path d="M8690 7503 c1 -18 18 -32 57 -46 23 -8 45 -12 48 -9 12 12 3 24 -27
36 -53 22 -78 28 -78 19z"/>
<path d="M6665 7480 c-3 -5 3 -10 15 -10 12 0 18 5 15 10 -3 6 -10 10 -15 10
-5 0 -12 -4 -15 -10z"/>
<path d="M10131 7430 c-1 -8 15 -33 34 -54 38 -44 48 -40 13 4 -13 15 -28 36
-35 46 -9 14 -12 15 -12 4z"/>
<path d="M8870 7400 c34 -29 85 -41 78 -19 -3 9 -92 50 -108 49 -3 0 11 -14
30 -30z"/>
<path d="M8980 7340 c0 -10 83 -70 98 -70 6 0 12 7 15 15 4 10 -9 22 -44 40
-55 27 -69 30 -69 15z"/>
<path d="M10230 7301 c5 -11 15 -23 21 -27 6 -3 3 5 -6 20 -20 30 -30 35 -15
7z"/>
<path d="M9117 7246 c12 -21 84 -76 99 -76 31 0 11 30 -40 59 -60 34 -71 38
-59 17z"/>
<path d="M10275 7220 c3 -5 8 -10 11 -10 2 0 4 5 4 10 0 6 -5 10 -11 10 -5 0
-7 -4 -4 -10z"/>
<path d="M10300 7188 c0 -9 5 -20 11 -23 17 -11 20 0 4 21 -13 17 -14 17 -15
2z"/>
<path d="M7260 7153 c-85 -15 -240 -72 -240 -89 0 -25 58 -73 101 -83 24 -7
64 -18 89 -26 28 -9 49 -10 55 -4 13 13 0 22 -67 48 -32 13 -62 29 -68 35 -14
18 16 42 65 51 22 4 58 17 80 31 34 20 49 23 93 17 32 -3 52 -2 52 4 0 18 -94
27 -160 16z"/>
<path d="M9302 7088 c2 -15 11 -24 26 -26 28 -4 30 23 3 38 -28 15 -33 13 -29
-12z"/>
<path d="M7575 7080 c3 -5 8 -10 11 -10 2 0 4 5 4 10 0 6 -5 10 -11 10 -5 0
-7 -4 -4 -10z"/>
<path d="M9407 6973 c15 -42 39 -55 50 -28 3 9 -2 22 -13 30 -27 20 -45 19
-37 -2z"/>
<path d="M7670 6926 c0 -17 63 -66 86 -66 11 0 2 13 -27 40 -48 42 -59 48 -59
26z"/>
<path d="M7570 6885 c-11 -13 -9 -15 15 -15 16 0 25 5 23 12 -7 19 -24 20 -38
3z"/>
<path d="M7388 6863 c-39 -16 -50 -39 -23 -50 16 -6 50 19 66 49 11 21 6 21
-43 1z"/>
<path d="M9485 6870 c3 -5 8 -10 11 -10 2 0 4 5 4 10 0 6 -5 10 -11 10 -5 0
-7 -4 -4 -10z"/>
<path d="M9761 6854 c0 -11 3 -14 6 -6 3 7 2 16 -1 19 -3 4 -6 -2 -5 -13z"/>
<path d="M7270 6841 c0 -25 6 -27 13 -6 4 8 2 17 -3 20 -6 4 -10 -3 -10 -14z"/>
<path d="M10344 6836 c-4 -10 -2 -22 4 -28 8 -8 13 -7 18 6 4 10 2 22 -4 28
-8 8 -13 7 -18 -6z"/>
<path d="M9520 6825 c0 -8 9 -15 20 -15 11 0 20 7 20 15 0 8 -9 15 -20 15 -11
0 -20 -7 -20 -15z"/>
<path d="M7593 6815 c-17 -8 -34 -18 -37 -23 -10 -17 46 -33 90 -26 44 6 55
-1 32 -24 -9 -9 -8 -12 4 -12 9 0 28 16 42 35 31 40 34 38 -78 60 -11 2 -35
-2 -53 -10z"/>
<path d="M10034 6789 c-3 -6 -1 -16 5 -22 8 -8 11 -5 11 11 0 24 -5 28 -16 11z"/>
<path d="M7430 6775 c-18 -22 -9 -26 43 -19 30 4 47 12 47 20 0 20 -74 18 -90
-1z"/>
<path d="M7347 6719 c-9 -28 -13 -57 -10 -65 3 -7 29 -22 59 -34 87 -32 92
-28 38 32 -25 28 -34 47 -32 65 2 17 -4 30 -19 40 -20 14 -22 12 -36 -38z"/>
<path d="M9950 6760 c0 -5 5 -10 10 -10 6 0 10 5 10 10 0 6 -4 10 -10 10 -5 0
-10 -4 -10 -10z"/>
<path d="M9590 6720 c0 -11 5 -20 10 -20 6 0 10 -9 10 -19 0 -27 15 -34 30
-16 11 13 9 19 -8 36 -12 11 -22 24 -22 29 0 6 -4 10 -10 10 -5 0 -10 -9 -10
-20z"/>
<path d="M6274 6673 c-11 -27 -21 -52 -23 -58 -2 -5 6 2 18 17 24 30 45 88 32
88 -5 0 -17 -21 -27 -47z"/>
<path d="M7980 6677 c0 -12 5 -38 10 -57 6 -19 17 -82 26 -140 12 -86 13 -121
3 -202 -12 -96 -9 -122 11 -102 18 18 40 123 40 187 0 104 -36 289 -63 325
-15 19 -27 14 -27 -11z"/>
<path d="M7803 6648 c-6 -7 -14 -31 -18 -52 -3 -22 -18 -61 -31 -88 -28 -55
-31 -96 -8 -105 8 -3 20 -17 26 -32 10 -23 12 -24 16 -6 2 11 8 24 13 30 5 5
9 27 9 50 0 23 5 46 10 51 15 15 18 156 4 161 -6 2 -16 -2 -21 -9z"/>
<path d="M8100 6637 c0 -14 41 -57 53 -57 16 0 5 40 -15 54 -27 19 -38 20 -38
3z"/>
<path d="M9680 6590 c0 -11 5 -20 10 -20 6 0 10 9 10 20 0 11 -4 20 -10 20 -5
0 -10 -9 -10 -20z"/>
<path d="M6215 6588 c-2 -7 -11 -38 -20 -68 -10 -30 -26 -64 -36 -76 -12 -13
-19 -35 -19 -60 1 -38 1 -38 29 31 16 39 38 92 50 118 11 27 21 53 21 58 0 14
-20 11 -25 -3z"/>
<path d="M9195 6540 c9 -117 25 -263 29 -268 3 -2 8 13 12 34 9 46 -9 191 -30
254 l-16 45 5 -65z"/>
<path d="M7274 6535 c-18 -15 -18 -16 6 -34 14 -11 33 -26 42 -33 23 -18 26
-48 6 -61 -14 -9 -22 -7 -42 12 -22 21 -28 22 -61 11 -22 -7 -55 -9 -85 -5
-45 6 -50 5 -50 -13 0 -27 19 -40 70 -48 25 -4 51 -11 58 -17 9 -7 21 -4 42
11 20 15 44 22 74 22 36 0 46 4 51 21 14 43 -19 110 -65 134 -24 12 -30 12
-46 0z"/>
<path d="M9685 6540 c-4 -7 -3 -16 3 -22 14 -14 45 -2 40 15 -6 16 -34 21 -43
7z"/>
<path d="M9590 6514 c0 -8 5 -12 10 -9 6 4 8 11 5 16 -9 14 -15 11 -15 -7z"/>
<path d="M9760 6392 c0 -24 8 -32 26 -25 20 7 17 20 -6 33 -17 9 -20 8 -20 -8z"/>
<path d="M7390 6361 c0 -14 90 -84 98 -76 4 4 -13 24 -38 46 -45 39 -60 46
-60 30z"/>
<path d="M6127 6333 c-4 -3 -7 -11 -7 -17 0 -6 5 -5 12 2 6 6 9 14 7 17 -3 3
-9 2 -12 -2z"/>
<path d="M6094 6268 c-5 -7 -7 -33 -4 -58 l6 -45 8 53 c8 56 5 71 -10 50z"/>
<path d="M7555 6250 c-3 -5 -1 -18 5 -29 18 -35 13 -52 -15 -45 l-26 6 17 -38
c9 -22 20 -47 25 -56 5 -10 9 -25 9 -33 0 -17 35 -21 45 -5 3 5 -1 20 -9 32
-9 12 -16 34 -16 48 l0 25 32 -33 c25 -25 30 -34 20 -44 -23 -23 -12 -52 48
-124 107 -131 160 -266 160 -409 0 -103 -52 -214 -146 -308 -68 -69 -261 -169
-353 -183 -32 -5 -37 -2 -48 22 -20 44 -16 64 27 110 39 42 49 64 31 64 -5 0
-23 -17 -40 -37 -55 -68 -62 -74 -71 -68 -6 4 -8 -18 -6 -54 l3 -61 -50 -15
c-28 -8 -61 -15 -73 -15 -54 0 -69 -23 -35 -54 18 -17 20 -16 26 3 7 24 69 39
94 24 9 -6 19 -28 22 -49 5 -32 6 -34 8 -11 1 31 52 87 77 87 8 0 33 9 55 20
21 11 85 36 142 55 125 41 177 63 177 73 0 4 22 24 49 44 69 52 130 146 170
260 28 83 31 101 22 130 -32 99 -75 343 -65 360 3 4 26 8 50 8 52 0 57 20 8
31 -109 25 -131 32 -151 45 -13 8 -23 25 -23 37 0 36 -51 108 -71 102 -12 -4
-31 10 -61 45 -44 52 -53 57 -63 40z m237 -297 c18 -16 25 -73 9 -73 -13 0
-61 59 -61 76 0 19 29 18 52 -3z"/>
<path d="M8127 6190 c-19 -83 -22 -120 -8 -120 14 0 33 98 29 150 l-3 45 -18
-75z"/>
<path d="M9815 6219 c-10 -15 3 -25 16 -12 7 7 7 13 1 17 -6 3 -14 1 -17 -5z"/>
<path d="M7225 6212 c-9 -9 -6 -20 11 -37 12 -12 27 -14 66 -9 33 5 57 2 74
-6 28 -16 30 -27 8 -52 -15 -16 -15 -18 -1 -24 26 -10 69 0 81 18 8 14 4 24
-24 53 -22 22 -40 33 -51 30 -9 -3 -49 3 -88 13 -39 11 -73 17 -76 14z"/>
<path d="M6068 6128 c-16 -33 -22 -132 -6 -122 4 3 8 25 8 50 0 25 5 54 11 65
6 11 9 24 7 30 -2 5 -11 -5 -20 -23z"/>
<path d="M7260 6084 c0 -9 5 -14 12 -12 18 6 21 28 4 28 -9 0 -16 -7 -16 -16z"/>
<path d="M7960 6040 c0 -10 39 -34 46 -27 3 2 2 12 -2 21 -7 17 -44 23 -44 6z"/>
<path d="M8080 6015 c-7 -8 -21 -15 -31 -15 -24 0 -24 2 9 -62 16 -29 31 -63
34 -76 3 -12 11 -22 16 -22 7 0 7 12 0 37 -5 20 -11 63 -11 95 -1 32 -2 58 -3
58 -1 0 -7 -7 -14 -15z"/>
<path d="M7450 5978 c-11 -23 -20 -52 -20 -62 0 -16 7 -11 35 20 35 38 42 73
17 82 -7 2 -21 -15 -32 -40z"/>
<path d="M5367 5944 c-4 -4 -7 -18 -7 -30 0 -13 -9 -28 -21 -34 -16 -9 -18
-14 -8 -26 24 -30 72 -3 72 40 0 29 -24 62 -36 50z"/>
<path d="M5780 5935 c0 -8 -9 -23 -20 -32 -24 -21 -26 -39 -4 -47 42 -16 83
51 52 82 -16 16 -28 15 -28 -3z"/>
<path d="M6025 5941 c-3 -6 -2 -28 1 -51 8 -50 24 -35 24 23 0 35 -12 48 -25
28z"/>
<path d="M7221 5848 c1 -50 19 -118 30 -118 17 0 19 42 4 94 -20 70 -35 80
-34 24z"/>
<path d="M5556 5852 c-3 -5 3 -15 13 -24 30 -26 45 -107 31 -172 -19 -92 -92
-131 -170 -91 -41 21 -46 4 -14 -45 40 -60 92 -84 171 -77 54 4 70 10 109 43
26 20 55 56 65 78 60 133 -31 296 -165 296 -19 0 -37 -4 -40 -8z"/>
<path d="M6030 5819 c0 -13 -7 -32 -15 -43 -12 -16 -12 -22 0 -47 18 -33 19
-77 4 -115 -7 -21 -7 -34 2 -51 7 -12 15 -20 19 -18 7 4 3 286 -5 293 -3 3 -5
-6 -5 -19z"/>
<path d="M7490 5778 c-1 -18 -8 -51 -17 -73 -16 -41 -18 -81 -8 -125 6 -22 8
-23 16 -7 28 49 42 237 18 237 -5 0 -9 -15 -9 -32z"/>
<path d="M7996 5688 c9 -51 37 -148 42 -143 7 7 -30 175 -39 175 -5 0 -6 -15
-3 -32z"/>
<path d="M8543 5708 c2 -7 10 -31 17 -53 24 -76 41 -111 60 -123 16 -9 13 1
-14 56 -19 37 -37 82 -41 100 -3 17 -11 32 -17 32 -6 0 -8 -6 -5 -12z"/>
<path d="M8407 5545 c8 -39 35 -93 40 -80 2 6 -8 33 -22 60 -19 38 -23 42 -18
20z"/>
<path d="M7575 5533 c-18 -84 -60 -235 -80 -285 -26 -67 -16 -78 15 -15 11 23
34 64 49 91 34 58 58 185 41 217 -14 26 -19 24 -25 -8z"/>
<path d="M8040 5523 c0 -18 20 -66 25 -61 3 3 -1 20 -9 39 -9 19 -15 29 -16
22z"/>
<path d="M7420 5437 c-19 -29 -53 -76 -77 -105 -24 -30 -43 -58 -43 -63 0 -20
21 -6 61 41 23 28 47 50 54 50 24 0 55 46 55 83 0 20 -4 38 -9 41 -4 3 -23
-18 -41 -47z"/>
<path d="M5773 5440 c-6 -17 -19 -30 -28 -30 -23 0 -14 -21 13 -31 15 -6 28
-2 44 10 19 16 21 23 13 47 -14 38 -28 40 -42 4z"/>
<path d="M5370 5439 c0 -12 -7 -27 -17 -34 -20 -15 -11 -45 15 -45 40 0 67 61
40 88 -19 19 -38 14 -38 -9z"/>
<path d="M7416 5333 c-6 -14 -5 -15 5 -6 7 7 10 15 7 18 -3 3 -9 -2 -12 -12z"/>
<path d="M6070 5297 c0 -38 32 -127 45 -127 8 0 -6 53 -16 65 -5 5 -9 28 -9
51 0 24 -4 46 -10 49 -6 4 -10 -11 -10 -38z"/>
<path d="M7386 5288 c-16 -22 -15 -35 2 -24 9 5 24 46 17 46 -2 0 -11 -10 -19
-22z"/>
<path d="M7267 5217 c-9 -15 -17 -32 -17 -39 0 -7 6 -4 12 7 6 11 16 23 21 26
5 4 8 12 5 19 -2 8 -10 3 -21 -13z"/>
<path d="M7980 5160 c0 -16 5 -30 10 -30 6 0 10 14 10 30 0 17 -4 30 -10 30
-5 0 -10 -13 -10 -30z"/>
<path d="M8075 5142 c6 -42 3 -54 -19 -87 -20 -29 -23 -41 -15 -52 16 -18 41
-195 30 -206 -5 -5 -20 -2 -35 8 -15 10 -33 14 -43 10 -16 -6 -16 -8 6 -26 13
-10 36 -19 52 -19 15 0 30 -4 33 -8 3 -5 38 -21 78 -37 99 -38 103 -45 28 -45
-89 0 -95 -5 -81 -70 14 -67 7 -76 -70 -84 -61 -7 -77 -20 -65 -51 4 -13 10
-14 26 -5 11 6 46 15 77 21 78 14 205 56 229 75 18 14 16 15 -21 10 -22 -2
-61 -8 -87 -12 -55 -8 -60 2 -23 42 22 24 30 26 71 21 46 -5 104 8 104 23 0 4
-7 13 -15 20 -8 7 -15 25 -15 40 0 35 -36 60 -87 60 -43 1 -102 27 -114 50
-15 31 -39 128 -39 157 0 17 7 54 17 82 14 44 14 57 3 91 -18 56 -33 51 -25
-8z"/>
<path d="M7081 5114 c0 -11 3 -14 6 -6 3 7 2 16 -1 19 -3 4 -6 -2 -5 -13z"/>
<path d="M7221 5104 c0 -11 3 -14 6 -6 3 7 2 16 -1 19 -3 4 -6 -2 -5 -13z"/>
<path d="M6120 5093 c0 -13 5 -23 10 -23 13 0 13 11 0 30 -8 12 -10 11 -10 -7z"/>
<path d="M7670 5096 c-8 -8 -53 -34 -99 -57 -111 -56 -149 -95 -192 -199 -19
-46 -35 -88 -37 -92 -2 -4 3 -8 11 -8 22 0 47 34 54 74 9 55 76 123 177 179
57 32 91 57 101 77 8 16 15 31 15 35 0 10 -16 5 -30 -9z"/>
<path d="M6155 5030 c4 -14 9 -41 12 -60 3 -19 16 -46 28 -60 26 -28 55 -92
55 -122 0 -10 7 -21 15 -24 14 -6 75 -105 75 -122 0 -5 20 -30 45 -57 25 -26
48 -58 51 -70 5 -21 94 -96 94 -79 0 4 -19 28 -42 54 -54 60 -105 130 -141
193 -15 27 -39 64 -52 82 -14 17 -25 38 -25 46 0 9 -14 37 -31 64 -17 27 -38
72 -47 99 -8 28 -22 58 -30 66 -13 13 -14 12 -7 -10z"/>
<path d="M7971 4937 c-8 -15 -11 -30 -8 -34 12 -12 29 14 25 38 -3 22 -3 22
-17 -4z"/>
<path d="M7120 4909 c0 -8 9 -33 21 -54 12 -22 28 -53 37 -70 9 -16 17 -24 20
-17 2 7 0 18 -6 25 -5 7 -12 23 -15 37 -8 31 -57 100 -57 79z"/>
<path d="M8609 4793 c-13 -16 -12 -17 4 -4 16 13 21 21 13 21 -2 0 -10 -8 -17
-17z"/>
<path d="M9251 4794 c0 -11 3 -14 6 -6 3 7 2 16 -1 19 -3 4 -6 -2 -5 -13z"/>
<path d="M5996 4776 c-3 -14 -15 -30 -27 -36 -16 -9 -18 -14 -8 -26 16 -20 43
-17 64 6 15 16 17 26 9 47 -12 35 -30 40 -38 9z"/>
<path d="M7996 4701 c-3 -5 0 -20 7 -33 l13 -25 18 25 c15 20 16 26 5 33 -18
11 -36 11 -43 0z"/>
<path d="M5944 4644 c-8 -3 -5 -18 9 -47 43 -89 31 -203 -26 -237 -38 -24 -75
-25 -124 -5 -20 8 -37 14 -39 12 -7 -7 39 -92 58 -106 152 -109 358 16 334
202 -9 61 -24 92 -68 134 -37 35 -112 60 -144 47z"/>
<path d="M5647 4583 c-4 -3 -7 -16 -7 -29 0 -12 -7 -24 -15 -28 -21 -8 -19
-34 5 -41 47 -15 83 38 56 80 -17 25 -27 30 -39 18z"/>
<path d="M7420 4511 c0 -6 5 -13 10 -16 15 -9 71 5 64 16 -7 12 -74 12 -74 0z"/>
<path d="M8330 4409 c-41 -16 -86 -29 -100 -29 -14 0 -32 -5 -40 -10 -32 -21
56 -9 115 15 33 14 65 25 71 25 6 0 17 7 24 15 15 19 20 20 -70 -16z"/>
<path d="M6550 4381 c0 -12 6 -21 13 -21 7 0 29 -14 50 -31 53 -43 56 -31 4
17 -57 55 -67 60 -67 35z"/>
<path d="M6240 4367 c0 -12 -9 -28 -20 -35 -27 -17 -25 -30 5 -38 47 -12 86
51 53 84 -19 19 -38 14 -38 -11z"/>
<path d="M6660 4282 c0 -15 38 -44 51 -40 7 2 -1 14 -19 27 -18 12 -32 18 -32
13z"/>
<path d="M6590 4219 c0 -10 40 -32 47 -25 3 2 2 9 -1 14 -8 13 -46 22 -46 11z"/>
<path d="M5900 4155 c0 -13 -7 -28 -17 -33 -21 -12 -10 -42 16 -42 23 0 51 25
51 46 0 24 -19 54 -35 54 -9 0 -15 -10 -15 -25z"/>
<path d="M6800 4171 c0 -5 5 -13 10 -16 6 -3 10 -2 10 4 0 5 -4 13 -10 16 -5
3 -10 2 -10 -4z"/>
<path d="M8833 4153 c-17 -6 -16 -40 1 -46 17 -7 26 1 26 24 0 21 -10 28 -27
22z"/>
<path d="M6711 4118 c32 -30 56 -41 64 -27 4 5 -2 12 -12 15 -10 3 -31 13 -48
21 l-30 16 26 -25z"/>
<path d="M6910 4096 c0 -2 7 -6 15 -10 8 -3 15 -1 15 4 0 6 -7 10 -15 10 -8 0
-15 -2 -15 -4z"/>
<path d="M8695 4071 c-6 -5 -19 -11 -30 -14 -15 -4 -14 -5 5 -4 14 1 32 -6 41
-17 17 -20 39 -15 39 9 0 8 -9 19 -19 25 -24 12 -25 12 -36 1z"/>
<path d="M7000 4046 c0 -8 90 -66 102 -66 16 0 -22 40 -54 56 -27 14 -48 18
-48 10z"/>
<path d="M6858 4011 c18 -17 41 -31 52 -31 36 0 18 31 -25 42 -11 3 -29 9 -40
13 -14 5 -10 -2 13 -24z"/>
<path d="M7160 3962 c0 -12 75 -52 98 -52 11 0 46 -13 78 -29 33 -16 82 -32
109 -36 28 -3 67 -13 88 -21 46 -17 60 -18 55 -2 -6 16 -65 36 -108 37 -19 1
-57 12 -84 26 -27 14 -60 25 -73 25 -13 0 -47 14 -76 30 -53 29 -87 38 -87 22z"/>
<path d="M6779 3923 c-1 -4 -2 -14 -3 -21 0 -7 -12 -21 -26 -32 -20 -15 -22
-20 -11 -34 18 -22 35 -20 68 8 24 21 26 27 18 52 -10 26 -43 46 -46 27z"/>
<path d="M8530 3880 c-12 -8 -11 -10 7 -10 12 0 25 5 28 10 8 13 -15 13 -35 0z"/>
<path d="M8345 3843 c-41 -10 -35 -20 11 -19 26 2 50 8 52 14 4 12 -24 14 -63
5z"/>
<path d="M7620 3825 c0 -9 36 -23 78 -30 53 -9 57 10 5 24 -39 11 -83 14 -83
6z"/>
<path d="M8210 3810 c-12 -8 -12 -10 2 -15 20 -8 41 2 33 16 -8 11 -16 11 -35
-1z"/>
<path d="M7800 3800 c20 -13 63 -13 55 0 -3 6 -21 10 -38 10 -24 0 -28 -3 -17
-10z"/>
<path d="M6906 3792 c-3 -5 1 -23 9 -38 17 -33 20 -130 5 -168 -5 -14 -24 -39
-42 -56 -29 -26 -39 -30 -78 -27 -25 3 -55 8 -67 12 -34 11 -30 -15 10 -67 42
-55 87 -78 157 -78 105 0 198 77 215 180 14 82 -36 189 -104 224 -37 20 -97
30 -105 18z"/>
<path d="M8812 3733 c2 -30 -1 -39 -20 -48 -35 -18 -37 -23 -17 -45 36 -40 88
-12 99 52 5 30 3 40 -16 57 -34 32 -49 27 -46 -16z"/>
<path d="M9480 3709 c0 -18 2 -19 15 -9 8 7 15 16 15 21 0 5 -7 9 -15 9 -9 0
-15 -9 -15 -21z"/>
<path d="M7200 3686 c0 -13 -10 -30 -22 -38 -26 -18 -19 -48 12 -48 40 0 60
19 60 55 0 24 -6 38 -19 45 -28 14 -31 13 -31 -14z"/>
<path d="M8657 3613 c-4 -3 -7 -14 -7 -24 0 -20 -32 -87 -62 -131 -23 -34 -23
-43 4 -68 23 -21 18 -41 -6 -21 -8 7 -27 11 -43 9 -23 -2 -29 -8 -31 -34 -2
-18 4 -49 12 -69 22 -52 20 -62 -14 -80 -37 -19 -39 -35 -3 -35 48 0 61 23 56
94 -4 40 -2 66 5 70 14 8 112 -19 138 -39 22 -17 87 -19 115 -5 21 12 54 69
44 78 -3 3 -15 1 -25 -6 -42 -26 -121 -6 -186 46 -39 31 -41 43 -16 80 31 45
64 121 57 132 -7 11 -28 13 -38 3z"/>
<path d="M6590 3547 c0 -13 -9 -32 -20 -42 -15 -14 -17 -21 -9 -32 16 -18 43
-16 62 5 30 33 16 92 -20 92 -7 0 -13 -11 -13 -23z"/>
<path d="M8440 3544 c0 -3 9 -17 20 -31 11 -14 20 -32 20 -39 0 -8 5 -14 10
-14 6 0 10 20 10 45 0 43 -1 45 -30 45 -16 0 -30 -3 -30 -6z"/>
<path d="M8368 3526 c-21 -15 -24 -46 -5 -46 16 0 57 37 57 50 0 14 -32 12
-52 -4z"/>
<path d="M7519 3490 c22 -22 42 -40 45 -40 13 0 -25 60 -43 70 -40 21 -41 9
-2 -30z"/>
<path d="M7381 3466 c-24 -25 -25 -56 -3 -64 10 -3 13 3 10 20 -1 14 3 33 11
42 22 27 7 28 -18 2z"/>
<path d="M8153 3468 c-20 -9 -37 -41 -34 -62 1 -4 -2 -13 -7 -20 -5 -6 -8 -57
-7 -113 3 -101 2 -103 -24 -122 -23 -18 -24 -20 -8 -27 12 -4 26 1 42 16 31
29 39 54 25 80 -6 11 -11 54 -12 95 -1 112 29 137 112 95 49 -25 78 -27 60 -5
-16 19 -11 19 28 -1 38 -19 57 -11 42 17 -6 10 -15 19 -21 19 -6 0 -22 9 -36
20 -29 22 -121 27 -160 8z"/>
<path d="M7770 3426 c17 -24 30 -50 30 -58 0 -8 9 -23 20 -33 11 -10 20 -30
20 -45 0 -33 19 -90 30 -90 5 0 10 -12 12 -27 4 -34 41 -42 87 -18 47 24 41
46 -11 39 l-43 -6 -27 54 c-14 29 -34 74 -43 100 -9 25 -23 52 -31 58 -7 7
-14 18 -14 25 0 15 -32 45 -48 45 -6 0 2 -20 18 -44z"/>
<path d="M8003 3453 c-17 -6 -16 -33 1 -33 17 0 38 24 29 33 -7 8 -12 8 -30 0z"/>
<path d="M7512 3389 c-23 -17 -42 -34 -42 -38 0 -4 9 -16 20 -26 11 -10 20
-29 20 -42 0 -12 5 -23 10 -23 19 0 23 32 7 59 -15 26 -15 29 10 53 40 41 23
53 -25 17z"/>
<path d="M7709 3363 c-7 -16 -15 -32 -18 -37 -2 -5 13 4 33 20 40 32 45 44 18
44 -11 0 -25 -12 -33 -27z"/>
<path d="M7322 3337 c-12 -13 -22 -31 -22 -41 0 -13 9 -8 35 20 19 20 35 38
35 40 0 13 -30 0 -48 -19z"/>
<path d="M7020 3331 c0 -10 -9 -29 -20 -43 -14 -19 -16 -28 -8 -36 40 -40 94
23 72 82 -9 23 -44 20 -44 -3z"/>
<path d="M8374 3303 c6 -44 4 -50 -32 -92 -55 -66 -61 -89 -12 -50 41 33 47
43 61 98 9 40 1 91 -14 91 -6 0 -7 -18 -3 -47z"/>
<path d="M7659 3284 c-11 -30 -63 -100 -94 -126 -11 -10 -15 -17 -9 -18 6 0
33 23 61 50 49 48 53 50 107 50 31 0 56 4 56 8 0 16 -36 42 -58 42 -11 0 -24
5 -27 10 -11 17 -25 11 -36 -16z"/>
<path d="M9090 3275 c-20 -24 -5 -28 21 -6 19 16 20 20 8 21 -9 0 -22 -7 -29
-15z"/>
<path d="M7265 3245 c-33 -15 -32 -16 55 -35 62 -13 162 -10 167 5 2 6 -21 11
-55 11 -38 0 -68 7 -83 17 -28 20 -43 20 -84 2z"/>
<path d="M8955 3220 c-3 -5 3 -10 14 -10 11 0 23 5 26 10 3 6 -3 10 -14 10
-11 0 -23 -4 -26 -10z"/>
<path d="M8908 3193 c7 -3 16 -2 19 1 4 3 -2 6 -13 5 -11 0 -14 -3 -6 -6z"/>
<path d="M8505 3017 c-27 -5 -79 -15 -115 -22 l-65 -13 57 -1 c31 -1 69 4 85
10 15 6 55 17 88 24 69 15 26 17 -50 2z"/>
<path d="M8350 2910 c-34 -7 -34 -7 12 -9 26 0 50 4 53 9 7 11 -12 11 -65 0z"/>
<path d="M8213 2902 c-18 -2 -33 -8 -33 -14 0 -6 12 -8 32 -4 54 11 54 23 1
18z"/>
<path d="M7980 2880 c-19 -6 -12 -8 30 -9 39 0 51 2 40 9 -17 11 -35 11 -70 0z"/>
<path d="M9993 9481 c-33 -21 -55 -55 -67 -104 -8 -34 25 -111 52 -122 73 -31
136 -21 176 25 32 38 40 78 26 129 -20 75 -120 114 -187 72z"/>
<path d="M5800 9483 c-57 -21 -100 -106 -80 -160 17 -42 70 -92 107 -99 45 -9
117 27 133 67 18 42 16 104 -4 134 -33 51 -104 77 -156 58z"/>
<path d="M10604 9070 c-46 -23 -84 -81 -84 -126 0 -16 11 -47 23 -69 67 -118
247 -55 247 87 0 61 -67 128 -129 128 -9 0 -34 -9 -57 -20z"/>
<path d="M5177 9052 c-106 -72 -71 -228 55 -248 106 -18 182 98 128 193 -27
49 -49 63 -108 69 -36 4 -54 1 -75 -14z"/>
<path d="M11115 8552 c-52 -33 -68 -59 -73 -117 -4 -53 -3 -56 36 -95 37 -37
44 -40 95 -40 45 0 61 5 87 26 40 34 60 74 60 119 0 28 -9 45 -38 77 -33 35
-45 41 -88 45 -37 3 -57 -1 -79 -15z"/>
<path d="M4653 8535 c-89 -38 -83 -183 8 -235 82 -45 189 0 204 87 18 111
-103 196 -212 148z"/>
<path d="M4905 8160 c-3 -5 -1 -10 4 -10 6 0 11 5 11 10 0 6 -2 10 -4 10 -3 0
-8 -4 -11 -10z"/>
<path d="M11528 7948 c-47 -27 -72 -85 -63 -143 8 -53 23 -71 78 -95 40 -18
52 -19 91 -9 108 27 146 151 71 233 -30 33 -37 36 -86 36 -37 0 -66 -7 -91
-22z"/>
<path d="M4249 7937 c-47 -23 -89 -76 -89 -111 0 -12 11 -41 24 -66 45 -84
136 -109 210 -57 41 29 54 68 45 129 -9 53 -28 82 -69 103 -50 25 -75 25 -121
2z"/>
<path d="M11853 7291 c-51 -24 -83 -72 -83 -123 0 -77 51 -129 134 -136 64 -5
107 22 145 90 l26 46 -28 56 c-28 59 -46 71 -115 81 -25 4 -51 -1 -79 -14z"/>
<path d="M3947 7278 c-93 -25 -123 -151 -52 -222 38 -39 100 -60 141 -50 14 4
44 23 65 44 36 34 39 41 39 92 0 66 -23 101 -84 129 -46 21 -55 21 -109 7z"/>
<path d="M4257 6983 c-4 -3 -7 -11 -7 -17 0 -6 5 -5 12 2 6 6 9 14 7 17 -3 3
-9 2 -12 -2z"/>
<path d="M4200 6794 c0 -8 5 -12 10 -9 6 3 10 10 10 16 0 5 -4 9 -10 9 -5 0
-10 -7 -10 -16z"/>
<path d="M4177 6743 c-10 -10 -8 -53 2 -53 10 0 21 24 21 46 0 15 -12 19 -23
7z"/>
<path d="M12048 6582 c-52 -24 -80 -65 -86 -124 -5 -48 -3 -50 42 -93 36 -35
54 -45 80 -45 61 0 97 12 132 45 31 30 34 37 34 92 0 69 -18 100 -74 127 -43
20 -81 20 -128 -2z"/>
<path d="M3713 6543 c-54 -35 -65 -75 -43 -155 15 -52 76 -88 150 -88 49 0 56
3 92 40 34 37 38 46 38 94 0 86 -54 136 -148 136 -35 0 -59 -7 -89 -27z"/>
<path d="M12100 5842 c-43 -21 -83 -92 -73 -131 23 -100 136 -152 219 -100 66
41 93 115 62 172 -37 70 -132 97 -208 59z"/>
<path d="M3670 5820 c-55 -34 -70 -59 -70 -116 0 -48 3 -54 46 -94 45 -41 48
-42 103 -38 94 7 149 66 138 148 -9 66 -59 112 -129 117 -41 3 -61 -1 -88 -17z"/>
<path d="M12015 5088 c-38 -38 -45 -52 -45 -84 0 -122 135 -186 233 -111 70
54 73 127 7 192 -34 33 -47 39 -95 43 -54 4 -56 4 -100 -40z"/>
<path d="M3755 5096 c-16 -7 -41 -26 -55 -40 -21 -23 -25 -37 -24 -87 1 -43 6
-65 20 -80 41 -46 128 -63 182 -35 39 20 58 45 72 93 11 36 10 46 -6 79 -36
73 -116 102 -189 70z"/>
<path d="M11863 4406 c-65 -29 -95 -130 -56 -186 58 -83 150 -91 219 -19 90
94 -41 260 -163 205z"/>
<path d="M3953 4380 c-105 -48 -112 -184 -12 -236 61 -31 145 -8 183 51 20 31
21 97 1 135 -29 57 -108 80 -172 50z"/>
<path d="M11564 3736 c-99 -43 -107 -177 -14 -228 78 -41 181 0 196 78 9 48
-29 122 -70 139 -54 22 -80 24 -112 11z"/>
<path d="M4275 3720 c-41 -17 -77 -67 -83 -115 -6 -55 9 -88 54 -115 89 -55
211 15 201 116 -9 89 -95 146 -172 114z"/>
<path d="M10304 3222 c-95 -87 -187 -167 -207 -181 -47 -30 -97 -86 -97 -107
0 -32 179 -234 208 -234 5 0 17 7 28 15 10 8 29 15 42 15 12 0 25 7 29 15 3 9
22 24 42 35 20 10 49 32 65 48 16 17 48 43 72 58 24 16 44 32 44 37 0 5 14 22
30 37 l30 28 -18 46 c-10 26 -52 84 -97 135 -93 105 -109 110 -171 53z"/>
<path d="M5540 3194 c-66 -70 -170 -207 -177 -232 -4 -18 -1 -27 12 -34 9 -6
41 -31 71 -57 69 -60 99 -82 158 -116 27 -16 67 -48 89 -72 22 -24 44 -43 49
-43 12 0 64 53 128 130 29 36 63 76 76 89 40 40 30 87 -27 119 -47 27 -55 33
-163 127 -168 146 -163 144 -216 89z"/>
<path d="M11122 3120 c-48 -29 -69 -79 -54 -129 18 -58 71 -101 126 -101 66 0
109 33 120 93 8 38 6 55 -7 82 -21 43 -70 75 -117 75 -19 0 -50 -9 -68 -20z"/>
<path d="M4689 3107 c-114 -61 -96 -214 27 -233 132 -19 210 152 104 227 -42
29 -84 31 -131 6z"/>
<path d="M11423 2878 c-6 -7 -13 -26 -17 -43 l-8 -30 32 33 c17 18 28 37 25
42 -8 14 -21 12 -32 -2z"/>
<path d="M11355 2780 c-4 -11 -17 -28 -31 -36 -13 -9 -24 -26 -24 -38 1 -20 1
-20 15 -2 8 10 28 33 44 52 35 38 37 44 17 44 -8 0 -18 -9 -21 -20z"/>
<path d="M4596 2732 c-3 -6 -1 -14 5 -17 14 -9 20 -2 10 14 -6 8 -11 9 -15 3z"/>
<path d="M4620 2682 c0 -5 29 -38 65 -73 36 -35 95 -93 130 -129 36 -36 65
-59 65 -52 0 7 -30 43 -66 80 -112 114 -141 146 -147 165 -6 17 -47 25 -47 9z"/>
<path d="M11244 2652 c-59 -58 -78 -82 -64 -82 12 0 110 93 110 105 0 13 -19
3 -46 -23z"/>
<path d="M10620 2608 c-32 -17 -70 -74 -70 -105 0 -44 31 -93 71 -113 49 -25
73 -25 116 1 39 24 53 53 53 110 0 79 -101 143 -170 107z"/>
<path d="M5212 2590 c-64 -39 -88 -110 -57 -170 22 -42 53 -60 107 -60 39 0
52 5 81 33 47 44 56 91 28 144 -20 40 -69 73 -108 73 -10 0 -33 -9 -51 -20z"/>
<path d="M9325 2581 c-6 -5 -39 -21 -75 -36 -36 -14 -78 -32 -95 -40 -16 -7
-46 -16 -65 -20 -19 -4 -40 -11 -45 -15 -6 -5 -31 -14 -56 -20 -63 -16 -75
-42 -53 -115 8 -30 19 -57 23 -60 5 -2 14 -26 21 -52 8 -26 25 -64 39 -86 30
-46 41 -46 152 7 41 19 90 37 109 41 79 14 123 31 138 53 10 15 24 22 47 22
43 0 57 18 40 50 -8 14 -14 32 -15 41 0 20 -76 207 -91 225 -13 16 -60 19 -74
5z"/>
<path d="M6573 2558 c-20 -25 -60 -125 -83 -205 -22 -78 -23 -83 -6 -102 9
-10 30 -21 47 -25 28 -5 105 -36 141 -56 10 -6 48 -20 85 -31 38 -12 90 -30
116 -41 27 -11 55 -17 61 -15 7 3 28 43 46 89 18 45 39 90 46 98 18 22 28 113
15 138 -6 12 -28 24 -53 31 -54 12 -122 35 -218 71 -41 16 -87 32 -103 36 -15
3 -30 10 -33 15 -8 13 -50 11 -61 -3z"/>
<path d="M11055 2460 c-27 -30 -12 -34 15 -5 13 14 19 25 13 25 -5 0 -18 -9
-28 -20z"/>
<path d="M4905 2398 c11 -6 35 -24 53 -41 43 -42 41 -27 -3 18 -20 19 -43 35
-53 35 -14 -1 -14 -2 3 -12z"/>
<path d="M7971 2292 c-258 -3 -251 0 -250 -106 2 -200 18 -267 59 -250 8 4 97
8 198 10 201 3 248 12 263 51 14 38 12 268 -3 281 -21 16 -43 17 -267 14z"/>
<path d="M5107 2220 c41 -39 55 -39 18 0 -16 17 -34 30 -39 30 -6 0 3 -14 21
-30z"/>
<path d="M9993 2157 c-31 -29 -36 -40 -37 -78 -1 -59 22 -93 78 -114 55 -21
88 -14 127 25 23 22 29 38 29 70 0 79 -47 130 -120 130 -32 0 -48 -7 -77 -33z"/>
<path d="M5808 2164 c-95 -51 -62 -224 43 -224 55 0 86 15 109 52 66 108 -43
232 -152 172z"/>
<path d="M5235 2120 c10 -11 23 -20 28 -20 6 0 2 9 -8 20 -10 11 -23 20 -28
20 -6 0 -2 -9 8 -20z"/>
<path d="M10325 1889 c-12 -19 5 -23 22 -6 16 16 16 17 1 17 -9 0 -20 -5 -23
-11z"/>
<path d="M9333 1846 c-33 -30 -37 -39 -37 -82 0 -61 24 -99 70 -114 86 -29
173 39 157 122 -20 102 -118 141 -190 74z"/>
<path d="M6475 1852 c-43 -27 -59 -62 -53 -117 13 -109 130 -140 203 -53 46
55 25 147 -40 174 -46 19 -74 18 -110 -4z"/>
<path d="M8671 1680 c-109 -26 -104 -199 6 -229 78 -22 149 44 138 128 -6 51
-26 78 -72 97 -18 8 -34 14 -35 13 -2 -1 -18 -5 -37 -9z"/>
<path d="M7171 1654 c-43 -36 -57 -93 -35 -140 37 -77 119 -92 179 -34 28 27
35 41 35 72 0 108 -103 167 -179 102z"/>
<path d="M7909 1605 c-33 -18 -62 -87 -54 -127 9 -40 50 -85 90 -98 40 -13 80
3 114 46 44 56 39 108 -14 161 -26 26 -41 33 -71 33 -22 -1 -51 -7 -65 -15z"/>
<path d="M6266 1525 c21 -16 54 -20 54 -6 0 11 -25 21 -53 21 -20 0 -20 0 -1
-15z"/>
<path d="M9220 1390 c-12 -8 -9 -10 13 -10 15 0 27 5 27 10 0 13 -20 13 -40 0z"/>
<path d="M9165 1370 c4 -6 11 -8 16 -5 14 9 11 15 -7 15 -8 0 -12 -5 -9 -10z"/>
<path d="M8617 1249 c-10 -6 -30 -8 -45 -4 -15 3 -59 0 -97 -6 -86 -15 -130
-18 -317 -25 -81 -4 -146 -9 -144 -13 5 -8 304 -6 313 2 3 4 39 7 78 7 40 0
113 3 163 6 81 6 92 9 92 25 0 21 -16 24 -43 8z"/>
<path d="M7490 1217 c0 -12 27 -16 143 -19 78 -3 144 -3 147 -1 14 12 -34 19
-146 21 -70 2 -131 5 -136 8 -4 3 -8 -1 -8 -9z"/>
</g>
</svg>
